<svg xmlns="http://www.w3.org/2000/svg" width="64.139" height="59.016" viewBox="0 0 64.139 59.016">
  <g id="appointments" transform="translate(0 -20.45)">
    <path id="Path_75" data-name="Path 75" d="M57.852,64.59h-.733v3.65a1.879,1.879,0,1,1-3.758,0V64.59H47.851v3.65a1.879,1.879,0,1,1-3.758,0V64.59H38.584v3.65a1.879,1.879,0,1,1-3.758,0V64.59H29.314v3.65a1.879,1.879,0,1,1-3.758,0V64.59H20.046v3.65a1.879,1.879,0,1,1-3.758,0V64.59H10.778v3.65a1.879,1.879,0,1,1-3.758,0V64.59H6.286A6.293,6.293,0,0,0,0,70.877v3.734H64.139V70.877a6.294,6.294,0,0,0-6.287-6.287Z" transform="translate(0 -38.61)" fill="#ff8715"/>
    <path id="Path_76" data-name="Path 76" d="M185.717,268.416v6.047h3.742v-6.047a1.879,1.879,0,0,1,1.879-1.879h6.046V262.8h-6.046a1.879,1.879,0,0,1-1.879-1.879V254.87h-3.742v6.047a1.88,1.88,0,0,1-1.879,1.879H177.79v3.741h6.048A1.88,1.88,0,0,1,185.717,268.416Z" transform="translate(-155.518 -205.054)" fill="#ff8715"/>
    <path id="Path_77" data-name="Path 77" d="M0,208.009A6.293,6.293,0,0,0,6.286,214.3H57.852a6.294,6.294,0,0,0,6.287-6.287V174.59H0Zm18.514-17.315a1.879,1.879,0,0,1,1.879-1.879h6.048v-6.047a1.878,1.878,0,0,1,1.879-1.879h7.5a1.879,1.879,0,0,1,1.879,1.879v6.047h6.046a1.879,1.879,0,0,1,1.879,1.879v7.5a1.879,1.879,0,0,1-1.879,1.879H37.7v6.047A1.879,1.879,0,0,1,35.82,208h-7.5a1.878,1.878,0,0,1-1.879-1.879v-6.047H20.393a1.879,1.879,0,0,1-1.879-1.879Z" transform="translate(0 -134.831)" fill="#ff8715"/>
    <path id="Path_78" data-name="Path 78" d="M207.758,22.329a1.879,1.879,0,1,0-3.758,0v3.65h3.758Z" transform="translate(-178.445 0)" fill="#ff8715"/>
    <path id="Path_79" data-name="Path 79" d="M133.778,22.329a1.879,1.879,0,0,0-3.758,0v3.65h3.758Z" transform="translate(-113.732 0)" fill="#ff8715"/>
    <path id="Path_80" data-name="Path 80" d="M59.8,22.329a1.879,1.879,0,0,0-3.758,0v3.65H59.8Z" transform="translate(-49.02 0)" fill="#ff8715"/>
    <path id="Path_81" data-name="Path 81" d="M429.718,22.329a1.879,1.879,0,1,0-3.758,0v3.65h3.758Z" transform="translate(-372.599 0)" fill="#ff8715"/>
    <path id="Path_82" data-name="Path 82" d="M355.738,22.329a1.879,1.879,0,1,0-3.758,0v3.65h3.758Z" transform="translate(-307.887 0)" fill="#ff8715"/>
    <path id="Path_83" data-name="Path 83" d="M281.758,22.329a1.879,1.879,0,1,0-3.758,0v3.65h3.758Z" transform="translate(-243.174 0)" fill="#ff8715"/>
  </g>
</svg>
