<svg xmlns="http://www.w3.org/2000/svg" width="66.52" height="51.854" viewBox="0 0 66.52 51.854">
  <g id="attended" transform="translate(-897 -214.28)">
    <g id="check" transform="translate(897 234.218)">
      <g id="Group_18" data-name="Group 18" transform="translate(0 0)">
        <path id="Path_109" data-name="Path 109" d="M33,33.4c-.937-.526-1.954-1.03-3.039-1.509-.526-.233-1.06-.454-1.59-.661-.415-.157-.907-.36-1.251-.449L22.09,29.424,33,11.3l2.531,1.517c.852.534,1.479.988,2.166,1.492l.144.106q1.024.757,2.009,1.556a50.023,50.023,0,0,1,3.866,3.446c.089.089.174.17.263.259.394-.437.78-.827,1.166-1.246a16.518,16.518,0,0,0-1.819-3.9,8.06,8.06,0,0,0-3.489-2.353s-.208-.064-.526-.17C37.126,10.984,33.251,8.972,33,8.192c0,0-1.246,7.612-8.491,7.807L23.5,15.952c-6.566-.585-8.825-8.436-8.825-8.436-.687,2.158-7.123,4.65-7.123,4.65a8.079,8.079,0,0,0-3.493,2.357C.428,19.907,0,31.887,0,31.887c.047,2.738,1.229,3.022,1.229,3.022,8.347,3.726,21.441,4.383,21.441,4.383.708.017,1.365-.021,2.022-.059l.017.068A91.069,91.069,0,0,0,37.8,37.508l-.818-1.072A13.97,13.97,0,0,0,33,33.4Z" transform="translate(0 -7.385)" fill="#55ce63"/>
        <path id="Path_110" data-name="Path 110" d="M7.222,7.931c.089-.114.187-.229.28-.356a.825.825,0,0,1-.025-.114C7.4,7.625,7.3,7.765,7.222,7.931Z" transform="translate(23.393 -7.447)" fill="#55ce63"/>
        <path id="Path_111" data-name="Path 111" d="M3.929,7.549,3.908,7.46l-.017.093c0-.017.021-.034.025-.051A.127.127,0,0,1,3.929,7.549Z" transform="translate(12.603 -7.447)" fill="#55ce63"/>
        <path id="Path_112" data-name="Path 112" d="M37.271,11.4a61.129,61.129,0,0,0-6.706,5.574c-2.115,2.009-4.12,4.125-6.049,6.308-.716.814-1.412,1.636-2.1,2.463a.172.172,0,0,1-.021-.038,33.256,33.256,0,0,0-3.264-3.7c-1.145-1.128-2.331-2.17-3.552-3.162-.615-.492-1.234-.975-1.865-1.45-.657-.475-1.234-.9-2.039-1.412L6.661,26.185c.458.123,1.123.382,1.687.6.6.229,1.183.475,1.768.733,1.17.517,2.31,1.081,3.4,1.687a17.847,17.847,0,0,1,5.3,4.167l3.853,5.053,2.217-4.807c1.115-2.408,2.45-4.926,3.819-7.325,1.382-2.416,2.857-4.786,4.455-7.071A57.708,57.708,0,0,1,38.391,12.7a25.821,25.821,0,0,1,6.554-5.24A27.125,27.125,0,0,0,37.271,11.4Z" transform="translate(21.576 -7.457)" fill="#55ce63"/>
      </g>
    </g>
    <ellipse id="Ellipse_4" data-name="Ellipse 4" cx="11.191" cy="10.667" rx="11.191" ry="10.667" transform="translate(909.82 214.28)" fill="#55ce63"/>
  </g>
</svg>
