<svg xmlns="http://www.w3.org/2000/svg" width="40.97" height="52.811" viewBox="0 0 40.97 52.811">
  <g id="bell" transform="translate(-51.493)">
    <g id="Group_14" data-name="Group 14" transform="translate(51.493)">
      <g id="Group_13" data-name="Group 13" transform="translate(0)">
        <path id="Path_104" data-name="Path 104" d="M175.208,404.514c0,.014,0,.027,0,.041a6.262,6.262,0,0,0,12.523,0c0-.014,0-.027,0-.041Z" transform="translate(-160.983 -358.006)" fill="#f4f7f6"/>
        <path id="Path_105" data-name="Path 105" d="M91.97,38.681,86.335,30.4V20.075A14.36,14.36,0,0,0,74.794,6V2.815a2.815,2.815,0,0,0-5.63,0V6A14.36,14.36,0,0,0,57.622,20.075V30.4l-5.635,8.278A2.847,2.847,0,0,0,54.34,43.13H89.617a2.847,2.847,0,0,0,2.353-4.449Z" transform="translate(-51.493)" fill="#f4f7f6"/>
      </g>
    </g>
  </g>
</svg>
