<svg xmlns="http://www.w3.org/2000/svg" width="39.196" height="34.566" viewBox="0 0 39.196 34.566">
  <g id="chat" transform="translate(0 -30.24)">
    <path id="Path_113" data-name="Path 113" d="M32.689,30.24H6.507A6.515,6.515,0,0,0,0,36.747V51.873A6.515,6.515,0,0,0,6.507,58.38h7.1l12.852,6.426V58.38h6.226A6.515,6.515,0,0,0,39.2,51.873V36.747A6.515,6.515,0,0,0,32.689,30.24ZM33,44.273A3.873,3.873,0,1,1,29.129,40.4,3.877,3.877,0,0,1,33,44.273Zm-17.276,0A3.873,3.873,0,1,1,19.6,48.146a3.877,3.877,0,0,1-3.873-3.873Zm-1.785,0A3.873,3.873,0,1,1,10.067,40.4a3.877,3.877,0,0,1,3.873,3.873Z" transform="translate(0 0)" fill="#ff8715"/>
    <path id="Path_114" data-name="Path 114" d="M112.5,192.963a1.576,1.576,0,1,0,1.576,1.576A1.578,1.578,0,0,0,112.5,192.963Z" transform="translate(-102.428 -150.266)" fill="#ff8715"/>
    <path id="Path_115" data-name="Path 115" d="M236.989,196.115a1.576,1.576,0,1,0-1.576-1.576A1.578,1.578,0,0,0,236.989,196.115Z" transform="translate(-217.391 -150.266)" fill="#ff8715"/>
    <path id="Path_116" data-name="Path 116" d="M361.483,192.963a1.576,1.576,0,1,0,1.576,1.576A1.578,1.578,0,0,0,361.483,192.963Z" transform="translate(-332.354 -150.266)" fill="#ff8715"/>
  </g>
</svg>
