<svg id="dash" xmlns="http://www.w3.org/2000/svg" width="62.72" height="62.72" viewBox="0 0 62.72 62.72">
  <path id="Path_25" data-name="Path 25" d="M24.173,0H4.573A4.578,4.578,0,0,0,0,4.573v11.76a4.578,4.578,0,0,0,4.573,4.574h19.6a4.578,4.578,0,0,0,4.574-4.574V4.573A4.578,4.578,0,0,0,24.173,0Zm0,0" fill="#ff8715"/>
  <path id="Path_26" data-name="Path 26" d="M24.173,213.332H4.573A4.578,4.578,0,0,0,0,217.906v27.44a4.578,4.578,0,0,0,4.573,4.573h19.6a4.578,4.578,0,0,0,4.574-4.573v-27.44A4.578,4.578,0,0,0,24.173,213.332Zm0,0" transform="translate(0 -187.199)" fill="#ffbc35"/>
  <path id="Path_27" data-name="Path 27" d="M301.506,341.332h-19.6a4.579,4.579,0,0,0-4.574,4.574v11.76a4.578,4.578,0,0,0,4.574,4.573h19.6a4.578,4.578,0,0,0,4.573-4.573v-11.76A4.578,4.578,0,0,0,301.506,341.332Zm0,0" transform="translate(-243.359 -299.519)" fill="#ff8715"/>
  <path id="Path_28" data-name="Path 28" d="M301.506,0h-19.6a4.578,4.578,0,0,0-4.574,4.573v27.44a4.578,4.578,0,0,0,4.574,4.574h19.6a4.578,4.578,0,0,0,4.573-4.574V4.573A4.578,4.578,0,0,0,301.506,0Zm0,0" transform="translate(-243.359)" fill="#ffbc35"/>
</svg>
