<svg xmlns="http://www.w3.org/2000/svg" width="54.765" height="58.518" viewBox="0 0 54.765 58.518">
  <g id="departments" transform="translate(-0.301 -0.001)">
    <path id="Path_57" data-name="Path 57" d="M168.3,93.6h2.028V95.63H168.3Zm0,0" transform="translate(-146.703 -81.735)" fill="#ff8715"/>
    <path id="Path_58" data-name="Path 58" d="M168.3,157.6h2.028v2.028H168.3Zm0,0" transform="translate(-146.703 -137.622)" fill="#ff8715"/>
    <path id="Path_59" data-name="Path 59" d="M168.3,221.6h2.028v2.028H168.3Zm0,0" transform="translate(-146.703 -193.509)" fill="#ff8715"/>
    <path id="Path_60" data-name="Path 60" d="M88.3,285.6h2.028v2.028H88.3Zm0,0" transform="translate(-76.844 -249.395)" fill="#ff8715"/>
    <path id="Path_61" data-name="Path 61" d="M360.3,173.6h2.028v2.028H360.3Zm0,0" transform="translate(-314.363 -151.594)" fill="#ff8715"/>
    <path id="Path_62" data-name="Path 62" d="M88.3,221.6h2.028v2.028H88.3Zm0,0" transform="translate(-76.844 -193.509)" fill="#ff8715"/>
    <path id="Path_63" data-name="Path 63" d="M88.3,93.6h2.028V95.63H88.3Zm0,0" transform="translate(-76.844 -81.735)" fill="#ff8715"/>
    <path id="Path_64" data-name="Path 64" d="M168.3,285.6h2.028v2.028H168.3Zm0,0" transform="translate(-146.703 -249.395)" fill="#ff8715"/>
    <path id="Path_65" data-name="Path 65" d="M88.3,157.6h2.028v2.028H88.3Zm0,0" transform="translate(-76.844 -137.622)" fill="#ff8715"/>
    <path id="Path_66" data-name="Path 66" d="M296.3,237.6h2.028v2.028H296.3Zm0,0" transform="translate(-258.476 -207.48)" fill="#ff8715"/>
    <path id="Path_67" data-name="Path 67" d="M360.3,237.6h2.028v2.028H360.3Zm0,0" transform="translate(-314.363 -207.48)" fill="#ff8715"/>
    <path id="Path_68" data-name="Path 68" d="M360.3,301.6h2.028v2.028H360.3Zm0,0" transform="translate(-314.363 -263.367)" fill="#ff8715"/>
    <path id="Path_69" data-name="Path 69" d="M296.3,173.6h2.028v2.028H296.3Zm0,0" transform="translate(-258.476 -151.594)" fill="#ff8715"/>
    <path id="Path_70" data-name="Path 70" d="M296.3,301.6h2.028v2.028H296.3Zm0,0" transform="translate(-258.476 -263.367)" fill="#ff8715"/>
    <path id="Path_71" data-name="Path 71" d="M80.3,365.6h6.085v8.113H80.3Zm0,0" transform="translate(-69.858 -319.254)" fill="#ff8715"/>
    <path id="Path_72" data-name="Path 72" d="M144.3,365.6h6.085v8.113H144.3Zm0,0" transform="translate(-125.745 -319.254)" fill="#ff8715"/>
    <path id="Path_73" data-name="Path 73" d="M312.3,381.6h6.085v6.085H312.3Zm0,0" transform="translate(-272.448 -333.225)" fill="#ff8715"/>
    <path id="Path_74" data-name="Path 74" d="M52.023,56.49V18.743L33.768,14.18V56.49H31.74V7.574L3.343,0V56.49H.3v2.028H55.066V56.49ZM19.57,10.853a1.014,1.014,0,0,1,1.014-1.014h4.057a1.014,1.014,0,0,1,1.014,1.014v4.057a1.014,1.014,0,0,1-1.014,1.014H20.584a1.014,1.014,0,0,1-1.014-1.014Zm0,8.113a1.014,1.014,0,0,1,1.014-1.014h4.057a1.014,1.014,0,0,1,1.014,1.014v4.057a1.014,1.014,0,0,1-1.014,1.014H20.584a1.014,1.014,0,0,1-1.014-1.014Zm0,8.113a1.014,1.014,0,0,1,1.014-1.014h4.057a1.014,1.014,0,0,1,1.014,1.014v4.057a1.014,1.014,0,0,1-1.014,1.014H20.584a1.014,1.014,0,0,1-1.014-1.014Zm0,8.113a1.014,1.014,0,0,1,1.014-1.014h4.057a1.014,1.014,0,0,1,1.014,1.014v4.057a1.014,1.014,0,0,1-1.014,1.014H20.584a1.014,1.014,0,0,1-1.014-1.014ZM9.428,10.853a1.014,1.014,0,0,1,1.014-1.014H14.5a1.014,1.014,0,0,1,1.014,1.014v4.057A1.014,1.014,0,0,1,14.5,15.923H10.443a1.014,1.014,0,0,1-1.014-1.014Zm0,8.113a1.014,1.014,0,0,1,1.014-1.014H14.5a1.014,1.014,0,0,1,1.014,1.014v4.057A1.014,1.014,0,0,1,14.5,24.037H10.443a1.014,1.014,0,0,1-1.014-1.014Zm0,8.113a1.014,1.014,0,0,1,1.014-1.014H14.5a1.014,1.014,0,0,1,1.014,1.014v4.057A1.014,1.014,0,0,1,14.5,32.15H10.443a1.014,1.014,0,0,1-1.014-1.014Zm0,8.113a1.014,1.014,0,0,1,1.014-1.014H14.5a1.014,1.014,0,0,1,1.014,1.014v4.057A1.014,1.014,0,0,1,14.5,40.263H10.443a1.014,1.014,0,0,1-1.014-1.014ZM26.669,54.462V56.49H8.414V45.334A1.014,1.014,0,0,1,9.428,44.32H25.655a1.014,1.014,0,0,1,1.014,1.014ZM35.8,20.994a1.014,1.014,0,0,1,1.014-1.014h4.057a1.014,1.014,0,0,1,1.014,1.014v4.057a1.014,1.014,0,0,1-1.014,1.014H36.811A1.014,1.014,0,0,1,35.8,25.051Zm0,8.113a1.014,1.014,0,0,1,1.014-1.014h4.057a1.014,1.014,0,0,1,1.014,1.014v4.057a1.014,1.014,0,0,1-1.014,1.014H36.811A1.014,1.014,0,0,1,35.8,33.164Zm0,12.17V37.221a1.014,1.014,0,0,1,1.014-1.014h4.057a1.014,1.014,0,0,1,1.014,1.014v4.057a1.014,1.014,0,0,1-1.014,1.014H36.811A1.014,1.014,0,0,1,35.8,41.277ZM47.967,56.49H37.825V47.362a1.014,1.014,0,0,1,1.014-1.014h8.113a1.014,1.014,0,0,1,1.014,1.014ZM50,41.277a1.014,1.014,0,0,1-1.014,1.014H44.924a1.014,1.014,0,0,1-1.014-1.014V37.221a1.014,1.014,0,0,1,1.014-1.014h4.057A1.014,1.014,0,0,1,50,37.221Zm0-8.113a1.014,1.014,0,0,1-1.014,1.014H44.924a1.014,1.014,0,0,1-1.014-1.014V29.107a1.014,1.014,0,0,1,1.014-1.014h4.057A1.014,1.014,0,0,1,50,29.107Zm0-8.113a1.014,1.014,0,0,1-1.014,1.014H44.924a1.014,1.014,0,0,1-1.014-1.014V20.994a1.014,1.014,0,0,1,1.014-1.014h4.057A1.014,1.014,0,0,1,50,20.994Zm0,0" fill="#ff8715"/>
  </g>
</svg>
