<svg xmlns="http://www.w3.org/2000/svg" width="72.504" height="62.72" viewBox="0 0 72.504 62.72">
  <g id="doctors" transform="translate(0 -33.046)">
    <g id="Group_3" data-name="Group 3" transform="translate(0 33.046)">
      <g id="Group_2" data-name="Group 2" transform="translate(0 0)">
        <circle id="Ellipse_1" data-name="Ellipse 1" cx="15.365" cy="15.365" r="15.365" transform="translate(20.886)" fill="#01b2c6"/>
        <circle id="Ellipse_2" data-name="Ellipse 2" cx="2.294" cy="2.294" r="2.294" transform="translate(49.323 47.147)" fill="#01b2c6"/>
        <path id="Path_45" data-name="Path 45" d="M122.749,299.019a5.589,5.589,0,0,0-3.8-1.673,5.4,5.4,0,0,0-3.849,1.732A19.05,19.05,0,0,1,122.749,299.019Z" transform="translate(-98.058 -258.222)" fill="#01b2c6"/>
        <path id="Path_46" data-name="Path 46" d="M72.445,253.849a36.842,36.842,0,0,0-18.874-26.7,40.734,40.734,0,0,1-.178,13.693,5.584,5.584,0,1,1-7.357,5.3,5.525,5.525,0,0,1,4.322-5.4c1.5-5.758.281-13.175-.059-15.129a9.266,9.266,0,0,0-1.214-.459,18.268,18.268,0,0,1-25.491.118,16.52,16.52,0,0,0-1.317,7.712c4.885.918,8.63,6.558,8.63,13.411a17.251,17.251,0,0,1-1.5,7.135c-.518,1.554-2.768,2.191-3.8,2.191a2.813,2.813,0,0,1,0-5.625,6.325,6.325,0,0,1,1.791.34,15.385,15.385,0,0,0-.281-9.089,16.124,16.124,0,0,0-12.434,0,15.135,15.135,0,0,0-.281,9.089,4.945,4.945,0,0,1,1.791-.4,2.813,2.813,0,1,1,0,5.625c-.977,0-3.168-.637-3.745-2.072h0a16.922,16.922,0,0,1-1.554-7.253c0-6.735,3.686-12.316,8.452-13.352a22.169,22.169,0,0,1,.637-6.38A36.8,36.8,0,0,0,.058,253.849,4.849,4.849,0,0,0,4.84,259.43H67.619A4.844,4.844,0,0,0,72.445,253.849Z" transform="translate(0 -196.709)" fill="#01b2c6"/>
      </g>
    </g>
  </g>
</svg>
