<svg xmlns="http://www.w3.org/2000/svg" width="82.554" height="61.916" viewBox="0 0 82.554 61.916">
  <g id="gmail" transform="translate(0 -64)">
    <rect id="Rectangle_8" data-name="Rectangle 8" width="61" height="61" transform="translate(11 64.916)" fill="#eceff1"/>
    <path id="Path_102" data-name="Path 102" d="M256,172.489l30.958,24.446V148.672Z" transform="translate(-214.723 -71.02)" fill="#cfd8dc"/>
    <path id="Path_103" data-name="Path 103" d="M74.815,64h-2.58L41.277,88.446,10.319,64H7.739A7.742,7.742,0,0,0,0,71.739v46.437a7.742,7.742,0,0,0,7.739,7.739h2.58V77.652l30.958,23.812L72.235,77.647v48.268h2.58a7.742,7.742,0,0,0,7.739-7.739V71.739A7.742,7.742,0,0,0,74.815,64Z" transform="translate(0 0)" fill="#ff8715"/>
  </g>
</svg>
