<svg id="logout" xmlns="http://www.w3.org/2000/svg" width="40.154" height="40.153" viewBox="0 0 40.154 40.153">
  <path id="Path_52" data-name="Path 52" d="M294.481,210.518H278.587a1.255,1.255,0,0,1,0-2.51h15.894a1.255,1.255,0,1,1,0,2.51Zm0,0" transform="translate(-255.583 -191.696)" fill="#e74424"/>
  <path id="Path_53" data-name="Path 53" d="M401.258,143.03a1.256,1.256,0,0,1-.887-2.143l5.387-5.387-5.387-5.387a1.255,1.255,0,1,1,1.775-1.775l6.274,6.274a1.255,1.255,0,0,1,0,1.775l-6.274,6.274A1.247,1.247,0,0,1,401.258,143.03Zm0,0" transform="translate(-368.634 -117.935)" fill="#e74424"/>
  <path id="Path_54" data-name="Path 54" d="M13.384,40.161a3.448,3.448,0,0,1-1.037-.156L2.278,36.651A3.377,3.377,0,0,1,0,33.469V3.354A3.35,3.35,0,0,1,3.346.008,3.451,3.451,0,0,1,4.383.164L14.451,3.518A3.376,3.376,0,0,1,16.73,6.7V36.815a3.349,3.349,0,0,1-3.346,3.346ZM3.346,2.518a.839.839,0,0,0-.837.837V33.469a.87.87,0,0,0,.581.806l10.021,3.339a.909.909,0,0,0,.273.037.839.839,0,0,0,.836-.837V6.7a.87.87,0,0,0-.581-.806L3.619,2.554a.908.908,0,0,0-.273-.037Zm0,0" transform="translate(0 -0.008)" fill="#e74424"/>
  <path id="Path_55" data-name="Path 55" d="M50.09,13.392a1.255,1.255,0,0,1-1.255-1.255V4.609a2.094,2.094,0,0,0-2.091-2.091H27.923a1.255,1.255,0,0,1,0-2.51H46.744a4.6,4.6,0,0,1,4.6,4.6v7.529A1.255,1.255,0,0,1,50.09,13.392Zm0,0" transform="translate(-24.576 -0.008)" fill="#e74424"/>
  <path id="Path_56" data-name="Path 56" d="M189.279,290.724h-6.692a1.255,1.255,0,0,1,0-2.51h6.692a2.094,2.094,0,0,0,2.091-2.091v-7.529a1.255,1.255,0,0,1,2.51,0v7.529A4.6,4.6,0,0,1,189.279,290.724Zm0,0" transform="translate(-167.111 -255.591)" fill="#e74424"/>
</svg>
