<svg xmlns="http://www.w3.org/2000/svg" width="67.938" height="68" viewBox="0 0 67.938 68">
  <g id="patients" transform="translate(0 0.454)">
    <path id="Path_50" data-name="Path 50" d="M24.569,38.647a2.831,2.831,0,0,1-2.355-1.26l-4.821-7.233H11.831a2.831,2.831,0,1,1,0-5.661h7.077a2.834,2.834,0,0,1,2.355,1.26l2.955,4.433,6.31-12.622A2.835,2.835,0,0,1,32.951,16a2.792,2.792,0,0,1,2.536,1.37l7.668,12.784H48.63a2.831,2.831,0,0,1,0,5.661H41.554a2.827,2.827,0,0,1-2.426-1.373l-5.84-9.732L27.1,37.084a2.834,2.834,0,0,1-2.358,1.56C24.688,38.647,24.629,38.647,24.569,38.647Z" transform="translate(16.477 28.9)" fill="#01b2c6"/>
    <ellipse id="Ellipse_3" data-name="Ellipse 3" cx="14.5" cy="14" rx="14.5" ry="14" transform="translate(11.003 -0.454)" fill="#01b2c6"/>
    <path id="Path_51" data-name="Path 51" d="M19.815,34.646a8.5,8.5,0,0,1,8.492-8.492h7.077a8.486,8.486,0,0,1,4.127,1.067l2.432-4.866a8.445,8.445,0,0,1,6.267-4.512A14.109,14.109,0,0,0,36.8,12H14.154A14.155,14.155,0,0,0,0,26.154v9.2a2.124,2.124,0,0,0,2.123,2.123H20.336A8.4,8.4,0,0,1,19.815,34.646Z" transform="translate(0 21.577)" fill="#01b2c6"/>
  </g>
</svg>
