<svg xmlns="http://www.w3.org/2000/svg" width="62.721" height="62.72" viewBox="0 0 62.721 62.72">
  <g id="payroll" transform="translate(-2.999 -3)">
    <path id="Path_84" data-name="Path 84" d="M24.161,43.61l-.17-.681a5.342,5.342,0,0,1-.759.077H21.07a5.311,5.311,0,0,1-.758-.077l-.17.681,2.009,1.34Z" transform="translate(1.395 3.25)" fill="#ff8715"/>
    <path id="Path_85" data-name="Path 85" d="M22.064,47.414l-.847.847.434.868h.826l.434-.868Z" transform="translate(1.483 3.615)" fill="#ff8715"/>
    <path id="Path_86" data-name="Path 86" d="M21.822,51l-.541,2.163h1.555L22.3,51Z" transform="translate(1.488 3.906)" fill="#ff8715"/>
    <path id="Path_87" data-name="Path 87" d="M21,55H31.814v2.163H21Z" transform="translate(1.465 4.232)" fill="#ff8715"/>
    <path id="Path_88" data-name="Path 88" d="M24.9,47.577l1.37-2.283a7.63,7.63,0,0,0-.922-.236l-1.78,1.186Z" transform="translate(1.674 3.423)" fill="#ff8715"/>
    <path id="Path_89" data-name="Path 89" d="M5,20.081V55.767H7.163v-34.6H36.225A15.994,15.994,0,0,1,35.605,19H6.081A1.082,1.082,0,0,0,5,20.081Z" transform="translate(0.163 1.302)" fill="#ff8715"/>
    <path id="Path_90" data-name="Path 90" d="M18.854,45.058a7.68,7.68,0,0,0-.922.236l1.37,2.284,1.332-1.332Z" transform="translate(1.215 3.423)" fill="#ff8715"/>
    <path id="Path_91" data-name="Path 91" d="M47.93,33.814V31.324A16.269,16.269,0,0,1,36.839,23H9V55.441h2.163v-1a9.953,9.953,0,0,1,7.771-9.666l.238-.951a5.4,5.4,0,0,1-2.289-2.859l-.64-.61a9.4,9.4,0,0,1-2.916-6.805v-.813a7.57,7.57,0,0,1,7.57-7.57h4.326a7.571,7.571,0,0,1,7.57,7.57v.813a9.4,9.4,0,0,1-2.915,6.8l-.641.611a5.4,5.4,0,0,1-2.289,2.859l.238.951a9.953,9.953,0,0,1,7.771,9.666v1H46.877A5.351,5.351,0,0,1,45.767,52.2V35.977A2.165,2.165,0,0,1,47.93,33.814ZM39.279,53.279H37.116V51.116h2.163Zm4.326,0H41.441V51.116H43.6Zm0-4.326H34.953V46.79H43.6Zm0-4.326H34.953V42.465H43.6Zm0-4.326H34.953V38.139H43.6Zm0-4.326H34.953V33.814H43.6Z" transform="translate(0.488 1.628)" fill="#ff8715"/>
    <path id="Path_92" data-name="Path 92" d="M21.244,41.7h2.163a3.248,3.248,0,0,0,3.244-3.244V36.828a.89.89,0,0,0-.714-.871,10.415,10.415,0,0,1-6.03-3.6l-.464.309A3.243,3.243,0,0,0,18,35.367v3.092A3.248,3.248,0,0,0,21.244,41.7Z" transform="translate(1.221 2.389)" fill="#ff8715"/>
    <path id="Path_93" data-name="Path 93" d="M20.706,29.826l.6.9a8.279,8.279,0,0,0,5.3,3.548,3.051,3.051,0,0,1,2.433,2.774,7.193,7.193,0,0,0,1.1-3.827v-.813A5.409,5.409,0,0,0,24.732,27H20.407A5.407,5.407,0,0,0,15,32.407v.813a7.139,7.139,0,0,0,1.081,3.793V35.8a5.4,5.4,0,0,1,2.408-4.5Z" transform="translate(0.977 1.953)" fill="#ff8715"/>
    <path id="Path_94" data-name="Path 94" d="M16.388,46.166A7.766,7.766,0,0,0,13,52.552v1h6.725l.78-3.118-.231-.464-1,1Z" transform="translate(0.814 3.513)" fill="#ff8715"/>
    <path id="Path_95" data-name="Path 95" d="M31.565,52.552a7.766,7.766,0,0,0-3.388-6.386l-2.885,4.809-1-1-.231.463.78,3.119h6.725Z" transform="translate(1.714 3.513)" fill="#ff8715"/>
    <path id="Path_96" data-name="Path 96" d="M45,35V51.221a3.244,3.244,0,1,0,6.488,0V35H45Z" transform="translate(3.418 2.604)" fill="#ff8715"/>
    <path id="Path_97" data-name="Path 97" d="M48.081,31c-.366,0-.722-.031-1.081-.055v2.218h2.163V30.949C48.8,30.973,48.447,31,48.081,31Z" transform="translate(3.581 2.275)" fill="#ff8715"/>
    <path id="Path_98" data-name="Path 98" d="M35.442,57.163a2.165,2.165,0,0,1-2.163,2.163H22.465A2.165,2.165,0,0,1,20.3,57.163V55H3v2.163a4.33,4.33,0,0,0,4.326,4.326H48.418a4.33,4.33,0,0,0,4.326-4.326V55h-17.3Zm10.814,0h2.163v2.163H46.255Zm-4.326,0h2.163v2.163H41.93Zm-4.326,0h2.163v2.163H37.6Z" transform="translate(0 4.232)" fill="#ff8715"/>
    <path id="Path_99" data-name="Path 99" d="M49.058,3A14.058,14.058,0,1,0,63.116,17.058,14.074,14.074,0,0,0,49.058,3Zm0,24.872A10.814,10.814,0,1,1,59.872,17.058,10.814,10.814,0,0,1,49.058,27.872Z" transform="translate(2.604 0)" fill="#ff8715"/>
    <path id="Path_100" data-name="Path 100" d="M49.326,11.362V9H47.163v2.163H45v3.244a3.248,3.248,0,0,0,3.244,3.244,1.082,1.082,0,0,1,1.081,1.081v1.081H48.244a1.082,1.082,0,0,1-1.081-1.081V17.651H45v1.081a3.24,3.24,0,0,0,2.163,3.045v2.362h2.163V21.977h2.163V18.732a3.248,3.248,0,0,0-3.244-3.244,1.082,1.082,0,0,1-1.081-1.081V13.326h1.081a1.082,1.082,0,0,1,1.081,1.081v1.081h2.163V14.407A3.24,3.24,0,0,0,49.326,11.362Z" transform="translate(3.418 0.488)" fill="#ff8715"/>
    <path id="Path_101" data-name="Path 101" d="M16.212,18.025a.465.465,0,0,0,.765-.316V13.831h7.571V3H4V13.831h8.017Zm.765-10.7h2.163V9.488H16.977Zm-4.326,0h2.163V9.488H12.651ZM10.488,9.488H8.326V7.326h2.163Z" transform="translate(0.081)" fill="#ff8715"/>
  </g>
</svg>
