<svg xmlns="http://www.w3.org/2000/svg" width="67.935" height="58.933" viewBox="0 0 67.935 58.933">
  <g id="pending" transform="translate(0 -27.88)">
    <g id="Layer_2_17_" transform="translate(0 27.88)">
      <g id="Group_1" data-name="Group 1">
        <path id="Path_27" data-name="Path 27" d="M37.018,40.742a1.292,1.292,0,0,1,2.5.326l2.064,24.115,3.865-13.932a1.292,1.292,0,0,1,2.5.055L50.1,60.644,53.78,45.2a1.292,1.292,0,0,1,2.536.12l2.743,19.552,1.23-3.974a1.292,1.292,0,0,1,1.234-.91H75.34a23.84,23.84,0,0,0,3.952-9.018c1.054-6.472.026-11.81-3.063-15.863-3.119-4.091-7.856-6.425-14.5-7.137a17.772,17.772,0,0,0-1.8-.094,21.1,21.1,0,0,0-13.079,4.7,21.079,21.079,0,0,0-13.069-4.7,17.847,17.847,0,0,0-1.8.094c-6.64.711-11.383,3.045-14.5,7.137C14.4,39.164,13.366,44.5,14.421,50.974a24.039,24.039,0,0,0,4.045,9.161H30.06Z" transform="translate(-11.757 -27.88)" fill="#ffbc35"/>
        <path id="Path_28" data-name="Path 28" d="M92.568,171.421a1.292,1.292,0,0,1-2.513-.2l-2.6-18.5-3.367,14.145a1.292,1.292,0,0,1-1.256.993h0a1.292,1.292,0,0,1-1.254-1L79.33,157.1l-4.424,15.947a1.292,1.292,0,0,1-1.244.946c-.04,0-.08,0-.12-.006a1.292,1.292,0,0,1-1.167-1.176L70.2,147.44l-5.267,14.679a1.291,1.291,0,0,1-1.216.855H53.078c4.295,5.6,10.181,11.134,15.338,15.986,0,0,4.4,4.412,5.714,5.543,1,.852,3.146,2.566,5.48,2.566s4.486-1.713,5.475-2.566c1.319-1.131,5.714-5.543,5.714-5.543,5.2-4.892,11.142-10.484,15.446-16.128H95.226Z" transform="translate(-44.508 -128.137)" fill="#ffbc35"/>
        <path id="Path_29" data-name="Path 29" d="M66.393,122.351H49.765a1.292,1.292,0,0,0-1.234.91l-1.23,3.974-2.743-19.552a1.292,1.292,0,0,0-2.536-.12L38.349,123,36.2,113.665a1.292,1.292,0,0,0-2.5-.055l-3.865,13.932-2.064-24.115a1.292,1.292,0,0,0-2.5-.326L18.3,122.493H1.292a1.292,1.292,0,1,0,0,2.583h17.92a1.292,1.292,0,0,0,1.216-.855l5.267-14.679,2.172,25.374a1.292,1.292,0,0,0,1.167,1.176c.04,0,.08.006.12.006a1.292,1.292,0,0,0,1.244-.946L34.822,119.2l2.248,9.752a1.292,1.292,0,0,0,1.254,1h0a1.292,1.292,0,0,0,1.256-.993l3.367-14.145,2.6,18.5a1.292,1.292,0,0,0,2.513.2l2.658-8.588H66.393a1.292,1.292,0,1,0,0-2.583Z" transform="translate(0 -90.238)" fill="#f7f1e6"/>
      </g>
    </g>
  </g>
</svg>
