<svg xmlns="http://www.w3.org/2000/svg" width="50.009" height="50.007" viewBox="0 0 50.009 50.007">
  <g id="user-icon" transform="translate(0 -0.001)">
    <path id="Path_107" data-name="Path 107" d="M25,0a25,25,0,1,0,25,25A25,25,0,0,0,25,0Zm0,7.476a8.27,8.27,0,1,1-8.269,8.27A8.271,8.271,0,0,1,25,7.477ZM25,43.471a18.351,18.351,0,0,1-11.95-4.406,3.524,3.524,0,0,1-1.237-2.679,8.341,8.341,0,0,1,8.381-8.339h9.624a8.329,8.329,0,0,1,8.368,8.339,3.516,3.516,0,0,1-1.236,2.678A18.344,18.344,0,0,1,25,43.471Z" transform="translate(0 0)" fill="#f4f7f6"/>
  </g>
</svg>
