<svg xmlns="http://www.w3.org/2000/svg" width="33.148" height="26.62" viewBox="0 0 33.148 26.62">
  <path id="angle-double-right" d="M41.345,110.674l-11.31,11.31a1.988,1.988,0,0,1-2.819,0L25.336,120.1a1.988,1.988,0,0,1,0-2.819l8.017-8.017-8.017-8.017a1.988,1.988,0,0,1,0-2.819l1.871-1.9a1.988,1.988,0,0,1,2.819,0l11.31,11.31A1.99,1.99,0,0,1,41.345,110.674Zm15.967-2.828L46,96.536a1.988,1.988,0,0,0-2.819,0L41.3,98.416a1.988,1.988,0,0,0,0,2.819l8.017,8.017L41.3,117.269a1.988,1.988,0,0,0,0,2.819l1.879,1.879a1.988,1.988,0,0,0,2.819,0l11.31-11.31A1.978,1.978,0,0,0,57.312,107.846Z" transform="translate(-24.75 -95.95)" fill="#fdfdfe"/>
</svg>
