<svg xmlns="http://www.w3.org/2000/svg" width="446.8" height="409.565" viewBox="0 0 446.8 409.565">
  <g id="_3459557" data-name="3459557" transform="translate(-26.6 -67.435)">
    <g id="Floor">
      <ellipse id="Floor_15_" cx="223.4" cy="131.2" rx="223.4" ry="131.2" transform="translate(26.6 214.6)" fill="#f5f5f5"/>
    </g>
    <g id="Shadows_1_">
      <path id="Shadow_28_" d="M94,345.9c12.9,7.5,12.9,19.6,0,27s-33.9,7.5-46.8,0-12.9-19.6,0-27C60.1,338.4,81,338.4,94,345.9Z" fill="#e0e0e0"/>
      <path id="Shadow_2_" d="M122.3,363.1l117.3,67.7a9.536,9.536,0,0,0,8.7,0L446.8,316.2c2.4-1.4,2.4-3.6,0-5L329.5,243.5a9.536,9.536,0,0,0-8.7,0L122.3,358.1C119.9,359.4,119.9,361.7,122.3,363.1Z" fill="#e0e0e0"/>
    </g>
    <g id="Plants">
      <g id="Plants_2_">
        <g id="XMLID_1019_">
          <g id="XMLID_1079_">
            <path id="XMLID_1101_" d="M418.3,291.9l-8.2-4.7s-4.9-20.2-2.9-38.4c2.7-25.6,16.5-36.7,25.9-33,6.3,2.5,8.3,9.6-2.3,24.9C424.5,249.6,416.9,268.4,418.3,291.9Z" fill="#028289"/>
          </g>
          <g id="XMLID_1073_" opacity="0.3">
            <path id="XMLID_1078_" d="M418.3,291.9l-8.2-4.7s-4.9-20.2-2.9-38.4c2.7-25.6,16.5-36.7,25.9-33,6.3,2.5,8.3,9.6-2.3,24.9C424.5,249.6,416.9,268.4,418.3,291.9Z"/>
          </g>
          <g id="XMLID_1029_">
            <path id="XMLID_1072_" d="M414.9,282h0c.4-.1.6-.4.5-.7-4.5-23.6,3.8-50.1,14-61.1a.566.566,0,0,0-.8-.8c-10.4,11.2-18.8,38.1-14.2,62.1A.472.472,0,0,0,414.9,282Z" fill="#fff"/>
          </g>
        </g>
        <g id="XMLID_918_">
          <g id="XMLID_943_">
            <path id="XMLID_991_" d="M439.7,304.2c1.3.7,4.7-2.3,5.7-3a12.887,12.887,0,0,0,3.8-4.8,11.366,11.366,0,0,0,.7-6.8,20.137,20.137,0,0,0-1-3.5c-.4-1.1-.8-2.3-1.2-3.4a8.424,8.424,0,0,1-.7-3.5c.2-2.4,2.2-4.2,4.1-5.7,2-1.7,4.1-3.9,4-6.8-.1-2.2-1.4-4.2-2.8-5.9-1.5-1.7-3.2-3.1-4.5-4.9a7.319,7.319,0,0,1-1.7-4.4,6.937,6.937,0,0,1,.8-2.8c.9-1.9,2.2-3.7,2.8-5.7s.4-4.5-1.3-5.9c-1.3-1.1-3.3-1.2-5-1a12.52,12.52,0,0,0-4.5,1.8c-4.4,2.8-6.7,8.3-11.5,10.5a55.372,55.372,0,0,1-5.8,1.7c-1.9.6-3.8,1.7-4.6,3.5-1.6,3.6,1.9,7.8.9,11.6-.9,3.4-4.1,4.8-5.8,7.9a7.326,7.326,0,0,0-.6,4.4,20.156,20.156,0,0,0,2.2,7.3,59.011,59.011,0,0,0,4.4,6.7S439.5,304.1,439.7,304.2Z" fill="#028289"/>
          </g>
          <g id="XMLID_926_" opacity="0.15">
            <path id="XMLID_941_" d="M439.7,304.2c1.3.7,4.7-2.3,5.7-3a12.887,12.887,0,0,0,3.8-4.8,11.366,11.366,0,0,0,.7-6.8,20.137,20.137,0,0,0-1-3.5c-.4-1.1-.8-2.3-1.2-3.4a8.424,8.424,0,0,1-.7-3.5c.2-2.4,2.2-4.2,4.1-5.7,2-1.7,4.1-3.9,4-6.8-.1-2.2-1.4-4.2-2.8-5.9-1.5-1.7-3.2-3.1-4.5-4.9a7.319,7.319,0,0,1-1.7-4.4,6.937,6.937,0,0,1,.8-2.8c.9-1.9,2.2-3.7,2.8-5.7s.4-4.5-1.3-5.9c-1.3-1.1-3.3-1.2-5-1a12.52,12.52,0,0,0-4.5,1.8c-4.4,2.8-6.7,8.3-11.5,10.5a55.372,55.372,0,0,1-5.8,1.7c-1.9.6-3.8,1.7-4.6,3.5-1.6,3.6,1.9,7.8.9,11.6-.9,3.4-4.1,4.8-5.8,7.9a7.326,7.326,0,0,0-.6,4.4,20.156,20.156,0,0,0,2.2,7.3,59.011,59.011,0,0,0,4.4,6.7S439.5,304.1,439.7,304.2Z"/>
          </g>
          <g id="XMLID_924_">
            <path id="XMLID_925_" d="M427.2,297.7h0a.5.5,0,0,0,.5-.6c-2.1-22.4,7.3-47.8,14.6-55.4a.566.566,0,1,0-.8-.8c-7.5,7.7-17,33.5-14.9,56.3A.56.56,0,0,0,427.2,297.7Z" fill="#fff"/>
          </g>
          <g id="XMLID_922_">
            <path id="XMLID_923_" d="M429.4,270.1h.2c7.1-2.6,16.1-3.4,16.2-3.5a.552.552,0,0,0-.1-1.1,80.344,80.344,0,0,0-16.5,3.5.517.517,0,0,0-.3.7C428.9,269.9,429.2,270.1,429.4,270.1Z" fill="#fff"/>
          </g>
        </g>
      </g>
    </g>
    <g id="Device">
      <g id="Laptop_1_">
        <path id="XMLID_611_" d="M126.3,350.6a10.587,10.587,0,0,0,4.9,8.2L239,421a10.809,10.809,0,0,0,9.9,0L438.5,311.5a10.747,10.747,0,0,0,4.9-8.2,10.587,10.587,0,0,0-4.9-8.2L330.8,232.9a10.809,10.809,0,0,0-9.9,0L131.3,342.4C128.6,344,126.3,347.7,126.3,350.6Z" fill="#37474f"/>
        <path id="XMLID_5480_" d="M131.3,348.1,239,410.3a10.809,10.809,0,0,0,9.9,0L438.5,300.8c2.7-1.6,2.7-4.1,0-5.7L330.8,232.9a10.809,10.809,0,0,0-9.9,0L131.3,342.4C128.6,344,128.6,346.5,131.3,348.1Z" fill="#455a64"/>
        <path id="XMLID_5466_" d="M243.9,411.5v10.7A9.618,9.618,0,0,1,239,421L131.3,358.8a9.3,9.3,0,0,1-.5-16.1c-2.2,1.6-2,3.9.5,5.4L239,410.3A9.619,9.619,0,0,0,243.9,411.5Z" fill="#263238"/>
        <path id="XMLID_609_" d="M121.7,342.6c-2.6-1.5-2.4-4-2.4-7.1V186.8a11,11,0,0,1,4.9-8.6L313.9,68.7a10.5,10.5,0,0,1,9.6-.2c2.6,1.5,2.4,4,2.4,7.1V224.3a11,11,0,0,1-4.9,8.6L131.3,342.4A10.5,10.5,0,0,1,121.7,342.6Z" fill="#37474f"/>
        <path id="XMLID_608_" d="M325.9,75.6c0-3.1-2.2-4.4-4.9-2.9L131.3,182.2a9.631,9.631,0,0,0-3.5,3.7l-7.1-4.1h0a9.631,9.631,0,0,1,3.5-3.7L313.9,68.7a10.5,10.5,0,0,1,9.6-.2C326,70,325.9,72.5,325.9,75.6Z" fill="#455a64"/>
        <path id="XMLID_606_" d="M130.7,342.7a10.492,10.492,0,0,1-9-.1c-2.6-1.5-2.4-4-2.4-7.1V186.7a9.317,9.317,0,0,1,1.5-4.9l7.1,4.1h0a10.318,10.318,0,0,0-1.5,4.9V339.6C126.3,342.5,128.3,343.8,130.7,342.7Z" fill="#263238"/>
        <path id="XMLID_605_" d="M134,187.9,316.8,82.4c1.6-.9,3-.2,3,1.7V214a6.287,6.287,0,0,1-3,5.1L134,324.6c-1.6.9-3,.2-3-1.7V193.1A6.61,6.61,0,0,1,134,187.9Z" fill="#fafafa"/>
        <path id="XMLID_604_" d="M145,342.7,321,241.1a5.3,5.3,0,0,1,4.9,0l2.9,1.6c1.4.8,1.4,2.1,0,2.9l-176,101.6a5.3,5.3,0,0,1-4.9,0l-2.9-1.6C143.6,344.8,143.6,343.5,145,342.7Z" fill="#263238"/>
        <g id="XMLID_269_">
          <path id="XMLID_603_" d="M158.8,350.9l176-101.6a4.817,4.817,0,0,1,4.5-.2l45.8,26.5c1.1.7.9,1.8-.4,2.6L208.9,379.6a5.163,5.163,0,0,1-4.5.3l-46-26.3C157.2,352.9,157.4,351.7,158.8,350.9Z" fill="#263238"/>
          <path id="XMLID_270_" d="M311.3,292l5.5-3.2c.2-.1.3-.3,0-.5l-5.3-3a1.1,1.1,0,0,0-.8,0l-5.5,3.2c-.2.1-.3.3,0,.5l5.3,3A1.1,1.1,0,0,0,311.3,292Zm-8-11-5.5,3.2c-.2.1-.3.3,0,.5l5.3,3a1.1,1.1,0,0,0,.8,0l5.5-3.2c.2-.1.3-.3,0-.5l-5.3-3A.608.608,0,0,0,303.3,281Zm-17.8,10.2-9.3,5.4c-.2.1-.3.3,0,.5l5.3,3a1.1,1.1,0,0,0,.8,0l9.3-5.4c.2-.1.3-.3,0-.5l-5.3-3A1.1,1.1,0,0,0,285.5,291.2Zm9.7-5.6-5.5,3.2c-.2.1-.3.3,0,.5l5.3,3a1.1,1.1,0,0,0,.8,0l5.5-3.2c.2-.1.3-.3,0-.5l-5.3-3A1.1,1.1,0,0,0,295.2,285.6Zm-21.6,12.5-5.5,3.2c-.2.1-.3.3,0,.5l5.3,3a1.1,1.1,0,0,0,.8,0l5.5-3.2c.2-.1.3-.3,0-.5l-5.3-3C274.2,297.9,273.8,298,273.6,298.1Zm-8.1,4.6-5.5,3.2c-.2.1-.3.3,0,.5l5.3,3a1.1,1.1,0,0,0,.8,0l5.5-3.2c.2-.1.3-.3,0-.5l-5.3-3A1.1,1.1,0,0,0,265.5,302.7Zm20.7,12.5,5.5-3.2c.2-.1.3-.3,0-.5l-5.3-3a1.1,1.1,0,0,0-.8,0l-5.5,3.2c-.2.1-.3.3,0,.5l5.3,3A1.1,1.1,0,0,0,286.2,315.2Zm-8.1,4.6,5.5-3.2c.2-.1.3-.3,0-.5l-5.3-3a1.1,1.1,0,0,0-.8,0l-5.5,3.2c-.2.1-.3.3,0,.5l5.3,3C277.5,320,277.9,319.9,278.1,319.8Zm-8,4.7,5.5-3.2c.2-.1.3-.3,0-.5l-5.3-3a1.1,1.1,0,0,0-.8,0L264,321c-.2.1-.3.3,0,.5l5.3,3A1.1,1.1,0,0,0,270.1,324.5Zm-8.1,4.6,5.5-3.2c.2-.1.3-.3,0-.5l-5.3-3a1.1,1.1,0,0,0-.8,0l-5.5,3.2c-.2.1-.3.3,0,.5l5.3,3C261.4,329.3,261.8,329.2,262,329.1Zm41.3-32.5,5.5-3.2c.2-.1.3-.3,0-.5l-5.3-3a1.1,1.1,0,0,0-.8,0l-5.5,3.2c-.2.1-.3.3,0,.5l5.3,3A.6.6,0,0,0,303.3,296.6Zm-9.1,13.9,12.3-7.1c.2-.1.3-.3,0-.5l-12.8-7.4a1.1,1.1,0,0,0-.8,0l-6.4,3.7c-.2.1-.3.3,0,.5l6.8,3.9c.2.1.2.3,0,.5l-5.1,2.9c-.2.1-.3.3,0,.5l5.3,3C293.7,310.7,294,310.6,294.2,310.5Zm-36.7-3.1-5.5,3.2c-.2.1-.3.3,0,.5l5.3,3a1.1,1.1,0,0,0,.8,0l5.5-3.2c.2-.1.3-.3,0-.5l-5.3-3C258.1,307.2,257.7,307.3,257.5,307.4Zm-8.1,4.6-5.5,3.2c-.2.1-.3.3,0,.5l5.3,3a1.1,1.1,0,0,0,.8,0l5.5-3.2c.2-.1.3-.3,0-.5l-5.3-3A1.1,1.1,0,0,0,249.4,312Zm-44.6,49.7a1.1,1.1,0,0,0,.8,0l5.5-3.2c.2-.1.3-.3,0-.5l-5.3-3a1.1,1.1,0,0,0-.8,0l-5.5,3.2c-.2.1-.3.3,0,.5ZM185,349.2l-5.5,3.2c-.2.1-.3.3,0,.5l5.3,3a1.1,1.1,0,0,0,.8,0l5.5-3.2c.2-.1.3-.3,0-.5l-5.3-3A1.1,1.1,0,0,0,185,349.2Zm10.2,9.4a1.1,1.1,0,0,0,.8,0l5.5-3.2c.2-.1.3-.3,0-.5l-5.3-3a1.1,1.1,0,0,0-.8,0l-5.5,3.2c-.2.1-.3.3,0,.5Zm22.2,5,5.5-3.2c.2-.1.3-.3,0-.5l-5.3-3a1.1,1.1,0,0,0-.8,0l-5.5,3.2c-.2.1-.3.3,0,.5l5.3,3A1.1,1.1,0,0,0,217.4,363.6Zm-8.8,4.6a1.1,1.1,0,0,0,.8,0l5.5-3.2c.2-.1.3-.3,0-.5l-5.3-3a1.1,1.1,0,0,0-.8,0l-5.5,3.2c-.2.1-.3.3,0,.5ZM193,344.6l-5.5,3.2c-.2.1-.3.3,0,.5l5.3,3a1.1,1.1,0,0,0,.8,0l5.5-3.2c.2-.1.3-.3,0-.5l-5.3-3C193.6,344.4,193.3,344.5,193,344.6Zm40.3-23.3-5.5,3.2c-.2.1-.3.3,0,.5l5.3,3a1.1,1.1,0,0,0,.8,0l5.5-3.2c.2-.1.3-.3,0-.5l-5.3-3A1.1,1.1,0,0,0,233.3,321.3Zm-32.2,18.6-5.5,3.2c-.2.1-.3.3,0,.5l5.3,3a1.1,1.1,0,0,0,.8,0l5.5-3.2c.2-.1.3-.3,0-.5l-5.3-3A1.1,1.1,0,0,0,201.1,339.9Zm40.3-23.2-5.5,3.2c-.2.1-.3.3,0,.5l5.3,3a1.1,1.1,0,0,0,.8,0l5.5-3.2c.2-.1.3-.3,0-.5l-5.3-3C242,316.5,241.6,316.6,241.4,316.7ZM225.3,326l-5.5,3.2c-.2.1-.3.3,0,.5l5.3,3a1.1,1.1,0,0,0,.8,0l5.5-3.2c.2-.1.3-.3,0-.5l-5.3-3A.762.762,0,0,0,225.3,326Zm-8.1,4.6-5.5,3.2c-.2.1-.3.3,0,.5l5.3,3a1.1,1.1,0,0,0,.8,0l5.5-3.2c.2-.1.3-.3,0-.5l-5.3-3A1.1,1.1,0,0,0,217.2,330.6Zm-8.1,4.7-5.5,3.2c-.2.1-.3.3,0,.5l5.3,3a1.1,1.1,0,0,0,.8,0l5.5-3.2c.2-.1.3-.3,0-.5l-5.3-3C209.7,335.1,209.4,335.2,209.1,335.3Zm36.8,3.1,5.5-3.2c.2-.1.3-.3,0-.5l-5.3-3a1.1,1.1,0,0,0-.8,0l-5.5,3.2c-.2.1-.3.3,0,.5l5.3,3C245.3,338.6,245.7,338.5,245.9,338.4Zm75.2-67.7-5.5,3.2c-.2.1-.3.3,0,.5l5.3,3a1.1,1.1,0,0,0,.8,0l5.5-3.2c.2-.1.3-.3,0-.5l-5.3-3A.608.608,0,0,0,321.1,270.7Zm-9.8,5.6-5.5,3.2c-.2.1-.3.3,0,.5l5.3,3a1.1,1.1,0,0,0,.8,0l5.5-3.2c.2-.1.3-.3,0-.5l-5.3-3A1.1,1.1,0,0,0,311.3,276.3ZM329.1,266l-5.5,3.2c-.2.1-.3.3,0,.5l5.3,3a1.1,1.1,0,0,0,.8,0l5.5-3.2c.2-.1.3-.3,0-.5l-5.3-3A1.1,1.1,0,0,0,329.1,266Zm-44.5,41.4,5.5-3.2c.2-.1.3-.3,0-.5l-5.3-3a1.1,1.1,0,0,0-.8,0l-5.5,3.2c-.2.1-.3.3,0,.5l5.3,3A1.1,1.1,0,0,0,284.6,307.4ZM338,261.3a1.1,1.1,0,0,0-.8,0l-5.5,3.2c-.2.1-.3.3,0,.5l5.3,3a1.1,1.1,0,0,0,.8,0l5.5-3.2c.2-.1.3-.3,0-.5Zm-84,72.5,5.5-3.2c.2-.1.3-.3,0-.5l-5.3-3a1.1,1.1,0,0,0-.8,0l-5.5,3.2c-.2.1-.3.3,0,.5l5.3,3A1.1,1.1,0,0,0,254,333.8Zm98.8-57.1,5.5-3.2c.2-.1.3-.3,0-.5l-5.3-3a1.1,1.1,0,0,0-.8,0l-5.5,3.2c-.2.1-.3.3,0,.5l5.3,3A.6.6,0,0,0,352.8,276.7Zm-15.6.3,5.5-3.2c.2-.1.3-.3,0-.5l-5.3-3a1.1,1.1,0,0,0-.8,0l-5.5,3.2c-.2.1-.3.3,0,.5l5.3,3A.6.6,0,0,0,337.2,277Zm8.3-11.3a1.1,1.1,0,0,0-.8,0l-5.5,3.2c-.2.1-.3.3,0,.5l5.3,3a1.1,1.1,0,0,0,.8,0l5.5-3.2c.2-.1.3-.3,0-.5Zm1.7-1,12.8,7.4a1.1,1.1,0,0,0,.8,0l5.5-3.2c.2-.1.3-.3,0-.5L353.5,261a1.1,1.1,0,0,0-.8,0l-5.5,3.2C347,264.4,347,264.6,347.2,264.7ZM328.6,275l-5.5,3.2c-.2.1-.3.3,0,.5l5.3,3a1.1,1.1,0,0,0,.8,0l5.5-3.2c.2-.1.3-.3,0-.5l-5.3-3A1.1,1.1,0,0,0,328.6,275ZM268,310l-5.5,3.2c-.2.1-.3.3,0,.5l5.3,3a1.1,1.1,0,0,0,.8,0l5.5-3.2c.2-.1.3-.3,0-.5l-5.3-3A1.1,1.1,0,0,0,268,310Zm75.9-28.6a1.1,1.1,0,0,0,.8,0l5.5-3.2c.2-.1.3-.3,0-.5l-5.3-3a1.1,1.1,0,0,0-.8,0l-5.5,3.2c-.2.1-.3.3,0,.5Zm-67.9,24-5.5,3.2c-.2.1-.3.3,0,.5l5.3,3a1.1,1.1,0,0,0,.8,0l5.5-3.2c.2-.1.3-.3,0-.5l-5.3-3A.6.6,0,0,0,276,305.4ZM212.9,357a1.1,1.1,0,0,0,.8,0l5.5-3.2c.2-.1.3-.3,0-.5l-5.3-3a1.1,1.1,0,0,0-.8,0l-5.5,3.2c-.2.1-.3.3,0,.5Zm-9.4-9.8-5.5,3.2c-.2.1-.3.3,0,.5l5.3,3a1.1,1.1,0,0,0,.8,0l5.5-3.2c.2-.1.3-.3,0-.5l-5.3-3A1.1,1.1,0,0,0,203.5,347.2Zm18.3,5.2,5.5-3.2c.2-.1.3-.3,0-.5l-5.3-3a1.1,1.1,0,0,0-.8,0l-5.5,3.2c-.2.1-.3.3,0,.5l5.3,3A1.1,1.1,0,0,0,221.8,352.4Zm8-4.7,5.5-3.2c.2-.1.3-.3,0-.5l-5.3-3a1.1,1.1,0,0,0-.8,0l-5.5,3.2c-.2.1-.3.3,0,.5l5.3,3C229.2,347.9,229.6,347.8,229.8,347.7Zm8.1-4.6,5.5-3.2c.2-.1.3-.3,0-.5l-5.3-3a1.1,1.1,0,0,0-.8,0l-5.5,3.2c-.2.1-.3.3,0,.5l5.3,3A1.1,1.1,0,0,0,237.9,343.1Zm-26.3-.5-5.5,3.2c-.2.1-.3.3,0,.5l5.3,3a1.1,1.1,0,0,0,.8,0l5.5-3.2c.2-.1.3-.3,0-.5l-5.3-3A.608.608,0,0,0,211.6,342.6Zm8-4.7-5.5,3.2c-.2.1-.3.3,0,.5l5.3,3a1.1,1.1,0,0,0,.8,0l5.5-3.2c.2-.1.3-.3,0-.5l-5.3-3A1.1,1.1,0,0,0,219.6,337.9Zm32.3-18.6-5.5,3.2c-.2.1-.3.3,0,.5l5.3,3a1.1,1.1,0,0,0,.8,0l5.5-3.2c.2-.1.3-.3,0-.5l-5.3-3A1.1,1.1,0,0,0,251.9,319.3Zm-8.1,4.7-5.5,3.2c-.2.1-.3.3,0,.5l5.3,3a1.1,1.1,0,0,0,.8,0l5.5-3.2c.2-.1.3-.3,0-.5l-5.3-3A.608.608,0,0,0,243.8,324Zm16.1-9.3-5.5,3.2c-.2.1-.3.3,0,.5l5.3,3a1.1,1.1,0,0,0,.8,0l5.5-3.2c.2-.1.3-.3,0-.5l-5.3-3A.6.6,0,0,0,259.9,314.7Zm-32.2,18.6-5.5,3.2c-.2.1-.3.3,0,.5l5.3,3a1.1,1.1,0,0,0,.8,0l5.5-3.2c.2-.1.3-.3,0-.5l-5.3-3A.608.608,0,0,0,227.7,333.3Zm8.1-4.7-5.5,3.2c-.2.1-.3.3,0,.5l5.3,3a1.1,1.1,0,0,0,.8,0l5.5-3.2c.2-.1.3-.3,0-.5l-5.3-3A1.1,1.1,0,0,0,235.8,328.6Zm-10.3,30.3,5.5-3.2c.2-.1.3-.3,0-.5l-5.3-3a1.1,1.1,0,0,0-.8,0l-5.5,3.2c-.2.1-.3.3,0,.5l5.3,3C224.9,359.1,225.2,359,225.5,358.9Zm-42.5-2-5.3-3a1.1,1.1,0,0,0-.8,0l-5.5,3.2c-.2.1-.3.3,0,.5l5.3,3a1.1,1.1,0,0,0,.8,0l5.5-3.2C183.2,357.2,183.2,357,183,356.9Zm10.5,2.6-5.3-3a1.1,1.1,0,0,0-.8,0l-8.5,4.9c-.2.1-.3.3,0,.5l5.3,3a1.1,1.1,0,0,0,.8,0l8.5-4.9C193.7,359.9,193.7,359.7,193.5,359.5Zm-18.4-8.6-5.3-3a1.1,1.1,0,0,0-.8,0l-6.8,3.9c-.2.1-.3.3,0,.5l5.3,3a1.1,1.1,0,0,0,.8,0l6.8-3.9C175.3,351.2,175.3,351,175.1,350.9Zm5.2-3a1.1,1.1,0,0,0,.8,0l5.5-3.2c.2-.1.3-.3,0-.5l-5.3-3a1.1,1.1,0,0,0-.8,0l-5.5,3.2c-.2.1-.3.3,0,.5Zm22.9,14.8-5.3-3a1.1,1.1,0,0,0-.8,0l-10.6,6.1c-.2.1-.3.3,0,.5l5.3,3a1.1,1.1,0,0,0,.8,0l10.6-6.1C203.3,363,203.4,362.8,203.2,362.7Zm3.7,6.5-5.3-3a1.1,1.1,0,0,0-.8,0l-6.8,3.9c-.2.1-.3.3,0,.5l5.3,3a1.1,1.1,0,0,0,.8,0l6.8-3.9C207.1,369.5,207.1,369.3,206.9,369.2Zm33.3-55.9a1.1,1.1,0,0,0,.8,0l5.5-3.2c.2-.1.3-.3,0-.5l-5.3-3a1.1,1.1,0,0,0-.8,0l-5.5,3.2c-.2.1-.3.3,0,.5Zm-16.1,9.3a1.1,1.1,0,0,0,.8,0l5.5-3.2c.2-.1.3-.3,0-.5l-5.3-3a1.1,1.1,0,0,0-.8,0l-5.5,3.2c-.2.1-.3.3,0,.5Zm-35.7,20.6a1.1,1.1,0,0,0,.8,0l5.5-3.2c.2-.1.3-.3,0-.5l-5.3-3a1.1,1.1,0,0,0-.8,0l-5.5,3.2c-.2.1-.3.3,0,.5ZM232.2,318a1.1,1.1,0,0,0,.8,0l5.5-3.2c.2-.1.3-.3,0-.5l-5.3-3a1.1,1.1,0,0,0-.8,0l-5.5,3.2c-.2.1-.3.3,0,.5Zm-16.1,9.3a1.1,1.1,0,0,0,.8,0l5.5-3.2c.2-.1.3-.3,0-.5l-5.3-3a1.1,1.1,0,0,0-.8,0l-5.5,3.2c-.2.1-.3.3,0,.5Zm-5.3,42.2a1.1,1.1,0,0,0-.8,0l-8.5,4.9c-.2.1-.3.3,0,.5l5.3,3a1.1,1.1,0,0,0,.8,0l8.5-4.9c.2-.1.3-.3,0-.5Zm-6.3-35.6a1.1,1.1,0,0,0,.8,0l5.5-3.2c.2-.1.3-.3,0-.5l-5.3-3a1.1,1.1,0,0,0-.8,0l-5.5,3.2c-.2.1-.3.3,0,.5Zm-8.1,4.7a1.1,1.1,0,0,0,.8,0l5.5-3.2c.2-.1.3-.3,0-.5l-5.3-3a1.1,1.1,0,0,0-.8,0l-5.5,3.2c-.2.1-.3.3,0,.5ZM360,283.4a1.1,1.1,0,0,0-.8,0l-13.6,7.8c-.2.1-.3.3,0,.5l5.3,3a1.1,1.1,0,0,0,.8,0l13.6-7.8c.2-.1.3-.3,0-.5Zm-17.8,10.3a1.1,1.1,0,0,0-.8,0l-5.5,3.2c-.2.1-.3.3,0,.5l5.3,3a1.1,1.1,0,0,0,.8,0l5.5-3.2c.2-.1.3-.3,0-.5ZM233.5,354.3l5.5-3.2c.2-.1.3-.3,0-.5l-5.3-3a1.1,1.1,0,0,0-.8,0l-5.5,3.2c-.2.1-.3.3,0,.5l5.3,3A1.1,1.1,0,0,0,233.5,354.3ZM326.1,303a1.1,1.1,0,0,0-.8,0l-5.5,3.2c-.2.1-.3.3,0,.5l5.3,3a1.1,1.1,0,0,0,.8,0l5.5-3.2c.2-.1.3-.3,0-.5Zm42-24.3a1.1,1.1,0,0,0-.8,0l-5.5,3.2c-.2.1-.3.3,0,.5l5.3,3a1.1,1.1,0,0,0,.8,0l5.5-3.2c.2-.1.3-.3,0-.5Zm13.3-1.6-12.8-7.4a1.1,1.1,0,0,0-.8,0l-5.5,3.2c-.2.1-.3.3,0,.5l12.8,7.4a1.1,1.1,0,0,0,.8,0l5.5-3.2C381.6,277.5,381.6,277.3,381.4,277.1ZM296,320.4a1.1,1.1,0,0,0-.8,0l-6.8,3.9c-.2.1-.3.3,0,.5l5.3,3a1.1,1.1,0,0,0,.8,0l6.8-3.9c.2-.1.3-.3,0-.5Zm20.4-11.8a1.1,1.1,0,0,0-.8,0l-8.5,4.9c-.2.1-.3.3,0,.5l5.3,3a1.1,1.1,0,0,0,.8,0l8.5-4.9c.2-.1.3-.3,0-.5Zm-39,22.5a1.1,1.1,0,0,0-.8,0l-45.4,26.2c-.2.1-.3.3,0,.5l5.3,3a1.1,1.1,0,0,0,.8,0l45.4-26.2c.2-.1.3-.3,0-.5Zm-47.9,27.7a1.1,1.1,0,0,0-.8,0l-6.8,3.9c-.2.1-.3.3,0,.5l5.3,3a1.1,1.1,0,0,0,.8,0l6.8-3.9c.2-.1.3-.3,0-.5Zm57.2-33.1a1.1,1.1,0,0,0-.8,0l-6.8,3.9c-.2.1-.3.3,0,.5l5.3,3a1.1,1.1,0,0,0,.8,0l6.8-3.9c.2-.1.3-.3,0-.5Zm-66.6,38.5a1.1,1.1,0,0,0-.8,0l-6.8,3.9c-.2.1-.3.3,0,.5l5.3,3a1.1,1.1,0,0,0,.8,0l6.8-3.9c.2-.1.3-.3,0-.5ZM305.4,315a1.1,1.1,0,0,0-.8,0l-6.8,3.9c-.2.1-.3.3,0,.5l5.3,3a1.1,1.1,0,0,0,.8,0l6.8-3.9c.2-.1.3-.3,0-.5Zm28.8-16.7a1.1,1.1,0,0,0-.8,0l-5.5,3.2c-.2.1-.3.3,0,.5l5.3,3a1.1,1.1,0,0,0,.8,0l5.5-3.2c.2-.1.3-.3,0-.5Zm18-12.6,5.5-3.2c.2-.1.3-.3,0-.5l-5.3-3a1.1,1.1,0,0,0-.8,0l-5.5,3.2c-.2.1-.3.3,0,.5l5.3,3A.608.608,0,0,0,352.2,285.7Zm-32.8,1.6,5.5-3.2c.2-.1.3-.3,0-.5l-5.3-3a1.1,1.1,0,0,0-.8,0l-5.5,3.2c-.2.1-.3.3,0,.5l5.3,3C318.8,287.5,319.1,287.4,319.4,287.3ZM298,317.1l16.1-9.3c.2-.1.3-.3,0-.5l-5.3-3a1.1,1.1,0,0,0-.8,0l-16.1,9.3c-.2.1-.3.3,0,.5l5.3,3A1.1,1.1,0,0,0,298,317.1Zm45.4-26.7a1.1,1.1,0,0,0,.8,0l5.5-3.2c.2-.1.3-.3,0-.5l-5.3-3a1.1,1.1,0,0,0-.8,0l-5.5,3.2c-.2.1-.3.3,0,.5Zm-6.8-4.4,5.5-3.2c.2-.1.3-.3,0-.5l-5.3-3a1.1,1.1,0,0,0-.8,0l-5.5,3.2c-.2.1-.3.3,0,.5l5.3,3A.608.608,0,0,0,336.6,286Zm-46.7,35.7,5.5-3.2c.2-.1.3-.3,0-.5l-5.3-3a1.1,1.1,0,0,0-.8,0l-5.5,3.2c-.2.1-.3.3,0,.5l5.3,3C289.3,321.9,289.7,321.8,289.9,321.7Zm35.7-21a1.1,1.1,0,0,0,.8,0l5.5-3.2c.2-.1.3-.3,0-.5l-5.3-3a1.1,1.1,0,0,0-.8,0l-5.5,3.2c-.2.1-.3.3,0,.5Zm-76,44.3,5.5-3.2c.2-.1.3-.3,0-.5l-5.3-3a1.1,1.1,0,0,0-.8,0l-5.5,3.2c-.2.1-.3.3,0,.5l5.3,3A1.1,1.1,0,0,0,249.6,345Zm8.1-4.7,5.5-3.2c.2-.1.3-.3,0-.5l-5.3-3a1.1,1.1,0,0,0-.8,0l-5.5,3.2c-.2.1-.3.3,0,.5l5.3,3C257.1,340.5,257.5,340.4,257.7,340.3Zm-16.1,9.3,5.5-3.2c.2-.1.3-.3,0-.5l-5.3-3a1.1,1.1,0,0,0-.8,0l-5.5,3.2c-.2.1-.3.3,0,.5l5.3,3C241,349.8,241.3,349.7,241.6,349.6ZM273.8,331l5.5-3.2c.2-.1.3-.3,0-.5l-5.3-3a1.1,1.1,0,0,0-.8,0l-5.5,3.2c-.2.1-.3.3,0,.5l5.3,3C273.2,331.2,273.6,331.1,273.8,331Zm-8.1,4.7,5.5-3.2c.2-.1.3-.3,0-.5l-5.3-3a1.1,1.1,0,0,0-.8,0l-5.5,3.2c-.2.1-.3.3,0,.5l5.3,3A1.1,1.1,0,0,0,265.7,335.7Zm16.2-9.3,5.5-3.2c.2-.1.3-.3,0-.5l-5.3-3a1.1,1.1,0,0,0-.8,0l-5.5,3.2c-.2.1-.3.3,0,.5l5.3,3A1.1,1.1,0,0,0,281.9,326.4Zm43.9-64.7a1.1,1.1,0,0,0,.8,0l5.5-3.2c.2-.1.3-.3,0-.5l-1.4-.8a1.1,1.1,0,0,0-.8,0l-5.5,3.2c-.2.1-.3.3,0,.5Zm-40,25.3a1.1,1.1,0,0,0,.8,0l5.5-3.2c.2-.1.3-.3,0-.5l-5.3-3a1.1,1.1,0,0,0-.8,0l-5.5,3.2c-.2.1-.3.3,0,.5Zm16.1-9.3a1.1,1.1,0,0,0,.8,0l5.5-3.2c.2-.1.3-.3,0-.5l-5.3-3a1.1,1.1,0,0,0-.8,0l-5.5,3.2c-.2.1-.3.3,0,.5Zm-26,15a1.1,1.1,0,0,0,.8,0l5.5-3.2c.2-.1.3-.3,0-.5l-5.3-3a1.1,1.1,0,0,0-.8,0l-5.5,3.2c-.2.1-.3.3,0,.5Zm17.9-10.3a1.1,1.1,0,0,0,.8,0l5.5-3.2c.2-.1.3-.3,0-.5l-5.3-3a1.1,1.1,0,0,0-.8,0l-5.5,3.2c-.2.1-.3.3,0,.5Zm-34,19.6a1.1,1.1,0,0,0,.8,0l5.5-3.2c.2-.1.3-.3,0-.5l-5.3-3a1.1,1.1,0,0,0-.8,0l-5.5,3.2c-.2.1-.3.3,0,.5Zm8.1-4.7a1.1,1.1,0,0,0,.8,0l5.5-3.2c.2-.1.3-.3,0-.5l-5.3-3a1.1,1.1,0,0,0-.8,0l-5.5,3.2c-.2.1-.3.3,0,.5ZM309.7,271a1.1,1.1,0,0,0,.8,0l5.5-3.2c.2-.1.3-.3,0-.5l-1.4-.8a1.1,1.1,0,0,0-.8,0l-5.5,3.2c-.2.1-.3.3,0,.5Zm24.2-14a1.1,1.1,0,0,0,.8,0l5.5-3.2c.2-.1.3-.3,0-.5l-1.4-.8a1.1,1.1,0,0,0-.8,0l-5.5,3.2c-.2.1-.3.3,0,.5Zm11,6.4a1.1,1.1,0,0,0,.8,0l5.5-3.2c.2-.1.3-.3,0-.5l-5.3-3a1.1,1.1,0,0,0-.8,0l-5.5,3.2c-.2.1-.3.3,0,.5Zm15.4,17.7,5.5-3.2c.2-.1.3-.3,0-.5l-5.3-3a1.1,1.1,0,0,0-.8,0l-5.5,3.2c-.2.1-.3.3,0,.5l5.3,3A1.1,1.1,0,0,0,360.3,281.1Zm-42.5-14.8a1.1,1.1,0,0,0,.8,0l5.5-3.2c.2-.1.3-.3,0-.5l-1.4-.8a1.1,1.1,0,0,0-.8,0l-5.5,3.2c-.2.1-.3.3,0,.5Zm-66,40.3a1.1,1.1,0,0,0,.8,0l5.5-3.2c.2-.1.3-.3,0-.5l-5.3-3a1.1,1.1,0,0,0-.8,0l-5.5,3.2c-.2.1-.3.3,0,.5Z" fill="#455a64"/>
        </g>
        <path id="XMLID_268_" d="M275.6,348.2l1.1.6,30.1,17.4,53.3-30.9,1.1-.6-31.1-18Z" fill="#37474f"/>
        <g id="XMLID_261_">
          <path id="XMLID_266_" d="M276.7,348.8l30.1,17.4,53.3-30.9-30-17.3Z" fill="#263238"/>
        </g>
      </g>
    </g>
    <g id="Mail_Box">
      <g id="MailBox_2_">
        <g id="Group_4" data-name="Group 4">
          <g id="Group_3" data-name="Group 3">
            <path id="Path_29" data-name="Path 29" d="M107.1,213.2l-12.2-7.1a1.523,1.523,0,0,0-1.2-.3,7.459,7.459,0,0,0-1.5.9c-.3.1-.3.6.1,1.3l3,6.2-2.2,2a1.693,1.693,0,0,0,.3,2.9l12.2,7.1,1.5-.9V213.2Z" fill="#eab88c"/>
            <path id="Path_30" data-name="Path 30" d="M107.1,213.2l-12.2-7.1a1.523,1.523,0,0,0-1.2-.3,7.459,7.459,0,0,0-1.5.9c-.3.1-.3.6.1,1.3l3,6.2-2.2,2a1.693,1.693,0,0,0,.3,2.9l12.2,7.1,1.5-.9V213.2Z" fill="#fff" opacity="0.5"/>
            <path id="XMLID_1090_" d="M93.3,207c-1.2-.7-1.7-.2-1.1,1l3,6.2-2.2,2a1.693,1.693,0,0,0,.3,2.9l12.2,7.1V214.1Z" fill="#77323b"/>
          </g>
          <g id="XMLID_1088_">
            <path id="XMLID_1089_" d="M107,252.1a1.367,1.367,0,0,1-1.4-1.4V210.1a1.4,1.4,0,0,1,2.8,0v40.6A1.367,1.367,0,0,1,107,252.1Z" fill="#455a64"/>
          </g>
        </g>
        <g id="Group_5" data-name="Group 5">
          <path id="XMLID_1087_" d="M54.4,360.3v-2.5H55a9.319,9.319,0,0,1,4.1-4c6.3-3.6,16.6-3.6,22.9,0a10.5,10.5,0,0,1,4.1,4h.6v2.5c.1,2.4-1.5,4.9-4.7,6.7-6.3,3.6-16.6,3.6-22.9,0C55.9,365.1,54.4,362.7,54.4,360.3Z" fill="#263238"/>
          <ellipse id="XMLID_628_" cx="16.2" cy="9.3" rx="16.2" ry="9.3" transform="translate(54.4 348.4)" fill="#455a64"/>
        </g>
        <g id="Group_6" data-name="Group 6">
          <path id="XMLID_1085_" d="M74.7,269.8v86.9a2.129,2.129,0,0,1-1.2,1.7,6.784,6.784,0,0,1-5.9,0,2.129,2.129,0,0,1-1.2-1.7V269.8Z" fill="#37474f"/>
          <path id="XMLID_1084_" d="M66.4,280.3v8.1l8.3,4.8v-8.1Z" fill="#263238"/>
        </g>
        <g id="Group_7" data-name="Group 7">
          <path id="Path_31" data-name="Path 31" d="M96.6,262l15.4,8.9-.3.3L84.8,286.8c-.2.1-.4,0-.4-.2V267.2a30.06,30.06,0,0,1,2.3-10.9Z" fill="#77323b"/>
          <path id="Path_32" data-name="Path 32" d="M96.6,262l15.4,8.9-.3.3L84.8,286.8c-.2.1-.4,0-.4-.2V267.2a30.06,30.06,0,0,1,2.3-10.9Z" opacity="0.4"/>
          <path id="XMLID_1083_" d="M112.1,249.3V271L86.6,256.3c0-.1.1-.1.1-.2,2.7-6.8,7.3-12.6,12.3-15.5a11.756,11.756,0,0,1,5.8-1.8C109.3,238.7,112.1,242.8,112.1,249.3Z" fill="#77323b"/>
          <path id="XMLID_629_" d="M112.1,249.3V271L86.6,256.3c0-.1.1-.1.1-.2,2.7-6.8,7.3-12.6,12.3-15.5a11.756,11.756,0,0,1,5.8-1.8C109.3,238.7,112.1,242.8,112.1,249.3Z" opacity="0.3"/>
        </g>
        <g id="XMLID_1075_">
          <path id="XMLID_627_" d="M139.8,295.2v-1.9h-.2v.3a9.83,9.83,0,0,0-.5-1.6,14.209,14.209,0,0,0-6.4-6.5L114.5,275a3.185,3.185,0,0,0-2.7,0l-28,16a4.5,4.5,0,0,1-.9-1v2h0a.938.938,0,0,0,.6.8l18.2,10.5a34.952,34.952,0,0,0,17.4,4.1c5.3-.1,10.5-1.2,14.5-3.5,4.2-2.4,6.2-5.5,6.2-8.7Z" fill="#eab88c"/>
          <path id="XMLID_634_" d="M139.8,295.2v-1.9h-.2v.3a9.83,9.83,0,0,0-.5-1.6,14.209,14.209,0,0,0-6.4-6.5L114.5,275a3.185,3.185,0,0,0-2.7,0l-28,16a4.5,4.5,0,0,1-.9-1v2h0a.938.938,0,0,0,.6.8l18.2,10.5a34.952,34.952,0,0,0,17.4,4.1c5.3-.1,10.5-1.2,14.5-3.5,4.2-2.4,6.2-5.5,6.2-8.7Z" opacity="0.4"/>
          <path id="XMLID_1077_" d="M139.1,292a14.209,14.209,0,0,0-6.4-6.5L114.5,275a3.185,3.185,0,0,0-2.7,0l-28,16,17.9,10.3a34.952,34.952,0,0,0,17.4,4.1c5.3-.1,10.5-1.2,14.5-3.5,3.7-2.1,5.7-4.9,6.1-7.7A4.559,4.559,0,0,0,139.1,292Z" fill="#77323b"/>
          <path id="XMLID_632_" d="M139.1,292a14.209,14.209,0,0,0-6.4-6.5L114.5,275a3.185,3.185,0,0,0-2.7,0l-28,16,17.9,10.3a34.952,34.952,0,0,0,17.4,4.1c5.3-.1,10.5-1.2,14.5-3.5,3.7-2.1,5.7-4.9,6.1-7.7A4.559,4.559,0,0,0,139.1,292Z" opacity="0.2"/>
          <path id="XMLID_1076_" d="M139.8,294.2a9.766,9.766,0,0,0-.6-2.3,14.209,14.209,0,0,0-6.4-6.5l-18.2-10.5a3.185,3.185,0,0,0-2.7,0L83.8,291l-.3-.2c-.8-.4-.8-1.1,0-1.6l28.2-16.3a3.185,3.185,0,0,1,2.7,0l18.2,10.5a14.646,14.646,0,0,1,6.4,6.5,7.06,7.06,0,0,1,.6,2.4A6.478,6.478,0,0,1,139.8,294.2Z" fill="#eab88c"/>
          <path id="XMLID_635_" d="M139.8,294.2a9.766,9.766,0,0,0-.6-2.3,14.209,14.209,0,0,0-6.4-6.5l-18.2-10.5a3.185,3.185,0,0,0-2.7,0L83.8,291l-.3-.2c-.8-.4-.8-1.1,0-1.6l28.2-16.3a3.185,3.185,0,0,1,2.7,0l18.2,10.5a14.646,14.646,0,0,1,6.4,6.5,7.06,7.06,0,0,1,.6,2.4A6.478,6.478,0,0,1,139.8,294.2Z" opacity="0.3"/>
        </g>
        <path id="XMLID_1074_" d="M84.1,289l28.2-16.3-.6-1.5L84.8,286.8Z" fill="#77323b"/>
        <path id="XMLID_631_" d="M84.1,289l28.2-16.3-.6-1.5L84.8,286.8Z" opacity="0.1"/>
        <g id="Group_8" data-name="Group 8">
          <g id="Letter_6_">
            <g id="XMLID_1028_">
              <g id="XMLID_1030_">
                <path id="XMLID_624_" d="M109.6,248a1.694,1.694,0,0,0-.7-1.2L74.6,227a1.479,1.479,0,0,0-1.3,0l-.8.4a1.387,1.387,0,0,0-.7,1.2v26.3a1.694,1.694,0,0,0,.7,1.2l34.3,19.8a1.479,1.479,0,0,0,1.3,0l.8-.4a1.387,1.387,0,0,0,.7-1.2Z" fill="#f5f5f5"/>
              </g>
            </g>
            <path id="XMLID_1027_" d="M109.4,247.3l-1.9,1.1L72,227.9a1.205,1.205,0,0,1,.5-.5l.8-.4a1.479,1.479,0,0,1,1.3,0l34.3,19.8A1.2,1.2,0,0,1,109.4,247.3Z" fill="#e0e0e0"/>
            <g id="XMLID_1025_">
              <g id="XMLID_1026_">
                <path id="Path_33" data-name="Path 33" d="M107.4,276h0Z" fill="#77323b"/>
                <path id="Path_34" data-name="Path 34" d="M107.5,248.4l-.4.2a.675.675,0,0,1,.4.6v26.3c0,.2-.1.4-.2.4H107a.1.1,0,0,1-.1-.1L72.6,256a1.387,1.387,0,0,1-.7-1.2V228.5a1.854,1.854,0,0,1,.2-.7Z" fill="#ebebeb"/>
              </g>
            </g>
            <path id="XMLID_623_" d="M107.5,248.4l-15.9,5.9a2.7,2.7,0,0,1-3.1-1l-2.6-3.9L71.8,227.8l13.6,21.7-13.6,5.3a1.854,1.854,0,0,0,.2.7l13.5-5.9,3,4.7a2.583,2.583,0,0,0,3.2,1l2.1-.9,13.5,21.5a.52.52,0,0,0,.2-.4V275L93.9,254.4Z" opacity="0.2"/>
          </g>
          <g id="Letter_5_">
            <g id="XMLID_621_">
              <g id="XMLID_622_">
                <path id="XMLID_1023_" d="M101.5,252.6a1.694,1.694,0,0,0-.7-1.2L66.5,231.6a1.479,1.479,0,0,0-1.3,0l-.8.4a1.387,1.387,0,0,0-.7,1.2v26.3a1.694,1.694,0,0,0,.7,1.2l34.3,19.8a1.479,1.479,0,0,0,1.3,0l.8-.4a1.387,1.387,0,0,0,.7-1.2Z" fill="#f5f5f5"/>
              </g>
            </g>
            <path id="XMLID_1020_" d="M101.3,252l-1.9,1.1L63.9,232.6a1.205,1.205,0,0,1,.5-.5l.8-.4a1.479,1.479,0,0,1,1.3,0l34.3,19.8A.821.821,0,0,1,101.3,252Z" fill="#e0e0e0"/>
            <g id="XMLID_619_">
              <g id="XMLID_1016_">
                <path id="Path_35" data-name="Path 35" d="M99.3,280.7h0Z" fill="#77323b"/>
                <path id="Path_36" data-name="Path 36" d="M99.4,253l-.4.2a.675.675,0,0,1,.4.6v26.3c0,.2-.1.4-.2.4h-.3c-.1,0-.1,0-.1-.1L64.5,260.6a1.387,1.387,0,0,1-.7-1.2V233.1a1.854,1.854,0,0,1,.2-.7Z" fill="#ebebeb"/>
              </g>
            </g>
            <path id="XMLID_1003_" d="M99.4,253.1,83.5,259a2.7,2.7,0,0,1-3.1-1l-2.6-3.9L63.7,232.5l13.6,21.7-13.6,5.3a1.854,1.854,0,0,0,.2.7l13.5-5.9,3,4.7a2.583,2.583,0,0,0,3.2,1l2.1-.9,13.5,21.5a.52.52,0,0,0,.2-.4v-.4L85.8,259.2Z" opacity="0.2"/>
          </g>
          <g id="Letter_4_">
            <g id="XMLID_617_">
              <g id="XMLID_942_">
                <path id="XMLID_618_" d="M93.4,257.3a1.694,1.694,0,0,0-.7-1.2L58.4,236.3a1.479,1.479,0,0,0-1.3,0l-.8.4a1.387,1.387,0,0,0-.7,1.2v26.3a1.694,1.694,0,0,0,.7,1.2l34.3,19.8a1.479,1.479,0,0,0,1.3,0l.8-.4a1.387,1.387,0,0,0,.7-1.2Z" fill="#f5f5f5"/>
              </g>
            </g>
            <path id="XMLID_616_" d="M93.2,256.6l-1.9,1.1L55.8,237.2a1.205,1.205,0,0,1,.5-.5l.8-.4a1.479,1.479,0,0,1,1.3,0l34.3,19.8A1.2,1.2,0,0,1,93.2,256.6Z" fill="#e0e0e0"/>
            <g id="XMLID_614_">
              <g id="XMLID_615_">
                <path id="Path_37" data-name="Path 37" d="M91.1,285.3h0Z" fill="#77323b"/>
                <path id="Path_38" data-name="Path 38" d="M91.3,257.7l-.4.2a.675.675,0,0,1,.4.6v26.3c0,.2-.1.4-.2.4s-.2.1-.3,0a.1.1,0,0,1-.1-.1L56.4,265.3a1.387,1.387,0,0,1-.7-1.2V237.8a1.854,1.854,0,0,1,.2-.7Z" fill="#ebebeb"/>
              </g>
            </g>
            <path id="XMLID_613_" d="M91.3,257.7l-15.9,5.9a2.7,2.7,0,0,1-3.1-1l-2.6-3.9L55.6,237.1l13.6,21.7-13.6,5.3a1.854,1.854,0,0,0,.2.7l13.5-5.9,3,4.7a2.583,2.583,0,0,0,3.2,1l2.1-.9,13.5,21.5a.52.52,0,0,0,.2-.4v-.4L77.7,263.8Z" opacity="0.2"/>
          </g>
        </g>
        <g id="Group_9" data-name="Group 9">
          <path id="Path_39" data-name="Path 39" d="M108.6,238c-2.7-1.4-6.4-1.2-10.3,1.1A32.085,32.085,0,0,0,87,251.6c-.7,1.2-1.2,2.5-1.8,3.8a31.174,31.174,0,0,0-2.5,11.7v22.2a3.194,3.194,0,0,1-1.4-.3L41.8,266.2a2.906,2.906,0,0,1-1.4-2.4V242.7c0-10.5,6.9-23,15.5-28,4-2.3,7.7-2.5,10.5-1h0Z" fill="#77323b"/>
          <path id="Path_40" data-name="Path 40" d="M108.6,238c-2.7-1.4-6.4-1.2-10.3,1.1A32.085,32.085,0,0,0,87,251.6c-.7,1.2-1.2,2.5-1.8,3.8a31.174,31.174,0,0,0-2.5,11.7v22.2a3.194,3.194,0,0,1-1.4-.3L41.8,266.2a2.906,2.906,0,0,1-1.4-2.4V242.7c0-10.5,6.9-23,15.5-28,4-2.3,7.7-2.5,10.5-1h0Z" opacity="0.2"/>
          <path id="Path_41" data-name="Path 41" d="M41.9,266.2,81.4,289a3.194,3.194,0,0,0,1.4.3V267.1a33.659,33.659,0,0,1,.7-6.2L41.3,236.5a26.8,26.8,0,0,0-.7,6.2v21.1A2.829,2.829,0,0,0,41.9,266.2Z" opacity="0.1"/>
          <path id="Path_42" data-name="Path 42" d="M85.2,255.4a31.174,31.174,0,0,0-2.5,11.7v22.2a.9.9,0,0,1-.5-.1V267.1c0-16.3,12.6-26.7,16-28a32.085,32.085,0,0,0-11.3,12.5C86.3,252.9,85.7,254.2,85.2,255.4Z" fill="#77323b"/>
          <path id="Path_43" data-name="Path 43" d="M85.2,255.4a31.174,31.174,0,0,0-2.5,11.7v22.2a.9.9,0,0,1-.5-.1V267.1c0-16.3,12.6-26.7,16-28a32.085,32.085,0,0,0-11.3,12.5C86.3,252.9,85.7,254.2,85.2,255.4Z" opacity="0.4"/>
        </g>
        <path id="XMLID_607_" d="M84.8,286.8c-.2.1-.4,0-.4-.2V267.2a30.06,30.06,0,0,1,2.3-10.9c0-.1.1-.1.1-.2.6-1.4,1.2-2.7,1.9-4a28.827,28.827,0,0,1,10.5-11.5,11.756,11.756,0,0,1,5.8-1.8,7.349,7.349,0,0,1,3,.7c2.7,1.4,4.3,4.9,4.3,9.8v21.2a.842.842,0,0,1-.4.7l.6,1.5.1-.1a2.651,2.651,0,0,0,.6-.5h0a3.1,3.1,0,0,0,.7-1.7V249.3c0-5.6-2-9.6-5.2-11.2-2.7-1.4-6.3-1.2-10.3,1.1a32.085,32.085,0,0,0-11.3,12.5c-.7,1.2-1.2,2.5-1.8,3.8a33.246,33.246,0,0,0-2.5,11.7v22.2H83a2.016,2.016,0,0,0,1.1-.3Z" fill="#eab88c"/>
        <path id="XMLID_630_" d="M84.8,286.8c-.2.1-.4,0-.4-.2V267.2a30.06,30.06,0,0,1,2.3-10.9c0-.1.1-.1.1-.2.6-1.4,1.2-2.7,1.9-4a28.827,28.827,0,0,1,10.5-11.5,11.756,11.756,0,0,1,5.8-1.8,7.349,7.349,0,0,1,3,.7c2.7,1.4,4.3,4.9,4.3,9.8v21.2a.842.842,0,0,1-.4.7l.6,1.5.1-.1a2.651,2.651,0,0,0,.6-.5h0a3.1,3.1,0,0,0,.7-1.7V249.3c0-5.6-2-9.6-5.2-11.2-2.7-1.4-6.3-1.2-10.3,1.1a32.085,32.085,0,0,0-11.3,12.5c-.7,1.2-1.2,2.5-1.8,3.8a33.246,33.246,0,0,0-2.5,11.7v22.2H83a2.016,2.016,0,0,0,1.1-.3Z" opacity="0.1"/>
      </g>
    </g>
    <g id="Envelopes">
      <g id="Envelope_1_">
        <g id="Letter_1_">
          <g id="XMLID_679_">
            <g id="XMLID_682_">
              <path id="XMLID_684_" d="M178.9,229.9a5.727,5.727,0,0,1,2.6-4.5l128.2-74a5.933,5.933,0,0,1,5.2,0l2.9,1.7a5.727,5.727,0,0,1,2.6,4.5V259.5a5.886,5.886,0,0,1-2.6,4.5L189.6,338a5.933,5.933,0,0,1-5.2,0l-2.9-1.7a5.886,5.886,0,0,1-2.6-4.5Z" fill="#77323b"/>
            </g>
          </g>
          <g id="XMLID_880_" opacity="0.7">
            <g id="XMLID_901_">
              <path id="XMLID_904_" d="M178.9,229.9a5.727,5.727,0,0,1,2.6-4.5l128.2-74a5.933,5.933,0,0,1,5.2,0l2.9,1.7a5.727,5.727,0,0,1,2.6,4.5V259.5a5.886,5.886,0,0,1-2.6,4.5L189.6,338a5.933,5.933,0,0,1-5.2,0l-2.9-1.7a5.886,5.886,0,0,1-2.6-4.5Z" fill="#fff"/>
            </g>
          </g>
          <path id="XMLID_677_" d="M179.7,227.3l7.4,4.3L319.7,155a5.5,5.5,0,0,0-1.8-1.9l-2.9-1.7a5.933,5.933,0,0,0-5.2,0l-128.2,74A4.953,4.953,0,0,0,179.7,227.3Z" fill="#77323b"/>
          <path id="XMLID_687_" d="M179.7,227.3l7.4,4.3L319.7,155a5.5,5.5,0,0,0-1.8-1.9l-2.9-1.7a5.933,5.933,0,0,0-5.2,0l-128.2,74A4.953,4.953,0,0,0,179.7,227.3Z" fill="#fff" opacity="0.8"/>
          <path id="XMLID_676_" d="M178.9,229.9V331.8a5.727,5.727,0,0,0,2.6,4.5l2.9,1.7c.2.1.5.2.7.3a3.6,3.6,0,0,0,1.1.2,4.972,4.972,0,0,0,2.1-.1c.2,0,.3-.1.5-.1.1,0,.2-.1.3-.1a1.928,1.928,0,0,1-1.3,0,1.77,1.77,0,0,1-.8-1.7V234.6a2.125,2.125,0,0,1,1.4-2.2l-1.4-.8-7.4-4.3A6.324,6.324,0,0,0,178.9,229.9Z" fill="#27debf" opacity="0.1"/>
          <path id="XMLID_919_" d="M178.9,229.9V331.8a5.727,5.727,0,0,0,2.6,4.5l2.9,1.7c.2.1.5.2.7.3a3.6,3.6,0,0,0,1.1.2,4.972,4.972,0,0,0,2.1-.1c.2,0,.3-.1.5-.1.1,0,.2-.1.3-.1a1.928,1.928,0,0,1-1.3,0,1.77,1.77,0,0,1-.8-1.7V234.6a2.125,2.125,0,0,1,1.4-2.2l-1.4-.8-7.4-4.3A6.324,6.324,0,0,0,178.9,229.9Z" opacity="0.05"/>
          <path id="XMLID_675_" d="M187.1,231.6l61.6,23a10.118,10.118,0,0,0,11.9-3.9l9.9-15.1,49.3-80.5-47.3,81.1,48.1,23.4a5.243,5.243,0,0,1-.8,2.6l-47.4-25.8-11.5,18.4a9.88,9.88,0,0,1-12.5,3.8l-8.2-3.6-52.1,83.2a1.77,1.77,0,0,1-.8-1.7v-1.7L240,254.9Z" fill="#77323b" opacity="0.2"/>
          <path id="XMLID_920_" d="M187.1,231.6l61.6,23a10.118,10.118,0,0,0,11.9-3.9l9.9-15.1,49.3-80.5-47.3,81.1,48.1,23.4a5.243,5.243,0,0,1-.8,2.6l-47.4-25.8-11.5,18.4a9.88,9.88,0,0,1-12.5,3.8l-8.2-3.6-52.1,83.2a1.77,1.77,0,0,1-.8-1.7v-1.7L240,254.9Z" opacity="0.05"/>
        </g>
      </g>
      <g id="Envelope">
        <g id="Letter_2_">
          <g id="XMLID_670_">
            <g id="XMLID_671_">
              <path id="XMLID_672_" d="M211.4,248.7a5.727,5.727,0,0,1,2.6-4.5l128.2-74a5.933,5.933,0,0,1,5.2,0l2.9,1.7a5.727,5.727,0,0,1,2.6,4.5V278.3a5.886,5.886,0,0,1-2.6,4.5l-128.2,74a5.933,5.933,0,0,1-5.2,0L214,355a5.727,5.727,0,0,1-2.6-4.5Z" fill="#77323b"/>
            </g>
          </g>
          <g id="XMLID_832_" opacity="0.5">
            <g id="XMLID_833_">
              <path id="XMLID_860_" d="M211.4,248.7a5.727,5.727,0,0,1,2.6-4.5l128.2-74a5.933,5.933,0,0,1,5.2,0l2.9,1.7a5.727,5.727,0,0,1,2.6,4.5V278.3a5.886,5.886,0,0,1-2.6,4.5l-128.2,74a5.933,5.933,0,0,1-5.2,0L214,355a5.727,5.727,0,0,1-2.6-4.5Z" fill="#eab88c"/>
            </g>
          </g>
          <path id="XMLID_669_" d="M212.2,246.1l7.4,4.3,132.6-76.6a5.5,5.5,0,0,0-1.8-1.9l-2.9-1.7a5.933,5.933,0,0,0-5.2,0l-128.2,74A4.953,4.953,0,0,0,212.2,246.1Z" fill="#77323b"/>
          <path id="XMLID_686_" d="M212.2,246.1l7.4,4.3,132.6-76.6a5.5,5.5,0,0,0-1.8-1.9l-2.9-1.7a5.933,5.933,0,0,0-5.2,0l-128.2,74A4.953,4.953,0,0,0,212.2,246.1Z" fill="#eab88c" opacity="0.6"/>
          <path id="XMLID_668_" d="M211.4,248.7V350.6a5.727,5.727,0,0,0,2.6,4.5l2.9,1.7c.2.1.5.2.7.3a3.6,3.6,0,0,0,1.1.2,4.972,4.972,0,0,0,2.1-.1c.2,0,.3-.1.5-.1.1,0,.2-.1.3-.1a1.633,1.633,0,0,1-1.2,0,1.77,1.77,0,0,1-.8-1.7v-102a2.125,2.125,0,0,1,1.4-2.2l-1.4-.8-7.4-4.3A5.6,5.6,0,0,0,211.4,248.7Z" opacity="0.1"/>
          <path id="XMLID_667_" d="M219.6,250.4l61.6,23a10.118,10.118,0,0,0,11.9-3.9l9.9-15.1,49.3-80.5L305,255l48.1,23.4a5.243,5.243,0,0,1-.8,2.6l-47.4-25.8-11.5,18.4a9.88,9.88,0,0,1-12.5,3.8l-8.2-3.6L220.6,357a1.77,1.77,0,0,1-.8-1.7v-1.7l52.7-79.9Z" fill="#77323b" opacity="0.4"/>
          <path id="XMLID_921_" d="M219.6,250.4l61.6,23a10.118,10.118,0,0,0,11.9-3.9l9.9-15.1,49.3-80.5L305,255l48.1,23.4a5.243,5.243,0,0,1-.8,2.6l-47.4-25.8-11.5,18.4a9.88,9.88,0,0,1-12.5,3.8l-8.2-3.6L220.6,357a1.77,1.77,0,0,1-.8-1.7v-1.7l52.7-79.9Z" opacity="0.05"/>
        </g>
      </g>
    </g>
    <g id="Open_Envelope_1_">
      <g id="Open_Envelope">
        <g id="XMLID_1080_">
          <path id="XMLID_1109_" d="M244.2,268.3l133.4-77,5.3,3.1a5.571,5.571,0,0,1,2.5,4.3v98.4a5.417,5.417,0,0,1-2.5,4.3L254.5,375.5a5.508,5.508,0,0,1-5,0l-2.8-1.6a5.571,5.571,0,0,1-2.5-4.3Z" fill="#77323b"/>
          <path id="XMLID_1108_" d="M244.2,268.3l133.4-77,5.3,3.1a5.571,5.571,0,0,1,2.5,4.3v98.4a5.417,5.417,0,0,1-2.5,4.3L254.5,375.5a5.508,5.508,0,0,1-5,0l-2.8-1.6a5.571,5.571,0,0,1-2.5-4.3Z" fill="#77323b" opacity="0.2"/>
          <path id="XMLID_1107_" d="M376.8,182.6l.5-.3-2.1-1.2h0l-.6-.3L315.9,159a4.039,4.039,0,0,0-4.5,1.4l-65.7,95.9a11.825,11.825,0,0,0-1.7,5.5v6.4l2,1.2,131.3-78.2v-6.4A2.315,2.315,0,0,0,376.8,182.6Z" fill="#77323b"/>
          <path id="XMLID_1106_" d="M314.3,161a2.337,2.337,0,0,0-.7.7l-65.7,95.9a9.588,9.588,0,0,0-1.2,2.7l-2-1.2a8.8,8.8,0,0,1,.5-1.5h0l.3-.6v-.1a2.092,2.092,0,0,1,.4-.6l65.7-95.9a1.768,1.768,0,0,1,.7-.7Z" fill="#77323b" opacity="0.1"/>
          <path id="XMLID_1105_" d="M377.4,182.3l-.6-.3-58.7-21.8a4.032,4.032,0,0,0-3.8.7l-2-1.2a3.786,3.786,0,0,1,3.8-.7l58.7,21.8a2.186,2.186,0,0,1,.5.3Z" fill="#fff" opacity="0.35"/>
          <g id="XMLID_1093_">
            <path id="XMLID_1104_" d="M245.5,257a2.092,2.092,0,0,1,.4-.6A2.092,2.092,0,0,1,245.5,257Z" fill="#77323b"/>
            <path id="XMLID_1103_" d="M311.9,160.1a1.381,1.381,0,0,1,.4-.3A1.38,1.38,0,0,0,311.9,160.1Z" fill="#77323b"/>
            <path id="XMLID_1100_" d="M244.7,259.2c.2-.5.3-1,.5-1.5A8.8,8.8,0,0,0,244.7,259.2Z" fill="#77323b"/>
            <path id="XMLID_1099_" d="M245.2,257.7l.3-.6Z" fill="#77323b"/>
            <path id="XMLID_1098_" d="M245.2,257.7Z" opacity="0.2"/>
            <path id="XMLID_1097_" d="M244.7,259.2Z" opacity="0.2"/>
            <path id="XMLID_1096_" d="M312.2,159.8Z" opacity="0.2"/>
            <path id="XMLID_1095_" d="M245.5,257.1Z" opacity="0.2"/>
            <path id="XMLID_1094_" d="M311.6,160.5c.1-.1.2-.3.3-.4C311.8,160.2,311.7,160.4,311.6,160.5Z" opacity="0.2"/>
          </g>
          <path id="XMLID_1092_" d="M313.6,161.7l-65.7,95.9a11.825,11.825,0,0,0-1.7,5.5v6.4l133.4-77v-6.4a4.5,4.5,0,0,0-2.8-4l-58.7-21.8A3.937,3.937,0,0,0,313.6,161.7Z" fill="#77323b"/>
          <path id="XMLID_1091_" d="M379.6,186.1a4.1,4.1,0,0,0-.7-2.2L246.7,260.4h0a9.117,9.117,0,0,0-.5,2.7v6.4l133.4-77Z" opacity="0.05"/>
        </g>
        <g id="Group_10" data-name="Group 10">
          <path id="Path_44" data-name="Path 44" d="M373.9,159c0-.7-.2-1.2-.6-1.4s-3.7-2.1-4.1-2.4a1.428,1.428,0,0,0-1.5.2L258.3,218.6a4.886,4.886,0,0,0-2.2,3.8v131c0,.7.2,1.2.6,1.4s3.7,2.1,4.1,2.3a1.428,1.428,0,0,0,1.5-.2l109.4-63.2a4.866,4.866,0,0,0,2.2-3.7Z" fill="#f0f0f0"/>
          <path id="Path_45" data-name="Path 45" d="M262.4,357l109.4-63.2A4.887,4.887,0,0,0,374,290V159c0-1.4-1-1.9-2.2-1.3L262.4,220.9a4.886,4.886,0,0,0-2.2,3.8v131C260.2,357.1,261.2,357.7,262.4,357Z" fill="#fafafa"/>
          <g id="XMLID_662_">
            <path id="XMLID_663_" d="M332.5,233a20.2,20.2,0,0,1-.8,4.4,17.93,17.93,0,0,1-1.6,3.7,12.065,12.065,0,0,1-2.1,2.8,9.05,9.05,0,0,1-2.3,1.8c-1.4.7-2.4,1-3.2.8a2.62,2.62,0,0,1-1.6-1c-.2.5-.5,1-.7,1.6-.3.5-.6,1-1,1.6a10.606,10.606,0,0,1-1.5,1.5,9.251,9.251,0,0,1-2.2,1.4,3.949,3.949,0,0,1-2.7.5,3.116,3.116,0,0,1-2-1.4,9.747,9.747,0,0,1-1.2-3.2,22.767,22.767,0,0,1-.3-4.8,28.368,28.368,0,0,1,.7-5.2,23.892,23.892,0,0,1,1.4-4.5,15.509,15.509,0,0,1,2.1-3.6,8.613,8.613,0,0,1,2.8-2.3c1.1-.6,1.9-.8,2.5-.5a2.5,2.5,0,0,1,1.3,1.2v-.5a2.2,2.2,0,0,1,.4-1.3,2.361,2.361,0,0,1,.8-.9l2.1-1.1a.605.605,0,0,1,.8.1,1.327,1.327,0,0,1,.3,1l-.5,12.8c0,1,.1,1.6.5,1.9a1.2,1.2,0,0,0,1.4,0,5.3,5.3,0,0,0,1.5-1.5,7.734,7.734,0,0,0,.8-3.1c.1-1.1.2-2.3.2-3.4,0-1.2.1-2.3,0-3.3a19.1,19.1,0,0,0-.8-5.3,6.439,6.439,0,0,0-2-3.1,4.686,4.686,0,0,0-3.4-.7,13.035,13.035,0,0,0-4.9,1.7,16.613,16.613,0,0,0-4.3,3.2,24.57,24.57,0,0,0-3.4,4.4,22.962,22.962,0,0,0-2.3,5.3,38.743,38.743,0,0,0-1.3,5.9c-.1.5-.1,1.3-.2,2.1,0,.9-.1,1.8-.1,2.7s-.1,1.8-.1,2.7v2.1a15.7,15.7,0,0,0,.9,4.7,8.747,8.747,0,0,0,2,3.1,4.887,4.887,0,0,0,3.1,1.1,9.668,9.668,0,0,0,4.2-1.2c1.1-.6,2.1-1.2,2.9-1.7a21.257,21.257,0,0,0,2.2-1.8c.6-.6,1.2-1.2,1.6-1.7a8.85,8.85,0,0,0,1.2-1.7,9.017,9.017,0,0,0,.7-1.1,4.35,4.35,0,0,1,.7-.6l3-1.6a.762.762,0,0,1,.8,0,1.445,1.445,0,0,1,.3,1.1,1.93,1.93,0,0,1-.3,1q-.9,1.65-2.1,3.6a31.755,31.755,0,0,1-2.7,3.7,24.918,24.918,0,0,1-3.7,3.5,26.86,26.86,0,0,1-5,3.2,12.916,12.916,0,0,1-6.2,1.7,6.747,6.747,0,0,1-4.4-1.8,9.887,9.887,0,0,1-2.7-4.6,21.8,21.8,0,0,1-1-6.6v-2.2c0-.9.1-1.9.1-2.9s.1-2,.1-2.9.1-1.7.1-2.2a35.8,35.8,0,0,1,1.5-7.8,39.372,39.372,0,0,1,3.2-7.6,30.946,30.946,0,0,1,4.8-6.6,22.87,22.87,0,0,1,6.4-4.8,16.367,16.367,0,0,1,7.1-2.1,6.457,6.457,0,0,1,4.6,1.6,9.779,9.779,0,0,1,2.6,4.6,33.944,33.944,0,0,1,.9,6.8c0,1,0,2.2-.1,3.6A15.532,15.532,0,0,1,332.5,233Zm-18.8,7.3a7.712,7.712,0,0,0,.6,4.2,1.486,1.486,0,0,0,2.2.5,4.724,4.724,0,0,0,2.3-2.8,13.972,13.972,0,0,0,.9-5,7.712,7.712,0,0,0-.6-4.2,1.486,1.486,0,0,0-2.2-.5,5.1,5.1,0,0,0-2.3,2.8A16.579,16.579,0,0,0,313.7,240.3Z" fill="#77323b"/>
          </g>
          <path id="Path_46" data-name="Path 46" d="M260.2,355.7a1.578,1.578,0,0,0,.5,1.3c-.7-.4-3.6-2.1-3.9-2.3-.4-.2-.6-.7-.6-1.4v-131a4.2,4.2,0,0,1,.6-2.1l4.1,2.3a4.2,4.2,0,0,0-.6,2.1V355.7Z" fill="#e0e0e0"/>
        </g>
        <g id="XMLID_944_">
          <path id="XMLID_1018_" d="M382,298.4c0,.1-.1.1-.1.2L326.3,281a9.532,9.532,0,0,0-12,3.7L254.9,373l-2.2,1.3h0a1.807,1.807,0,0,1-1.7.2l61.1-91a9.566,9.566,0,0,1,12-3.7Z" fill="#77323b"/>
          <path id="XMLID_1017_" d="M308.8,293.3l.1-.1-54,79.8-2.2,1.3h0a1.807,1.807,0,0,1-1.7.2l55.7-82.4Z" fill="#fff" opacity="0.4"/>
          <path id="XMLID_1013_" d="M382,298.4c0,.1-.1.1-.1.2L326.3,281a9.532,9.532,0,0,0-12,3.7l-2.2-1.3a9.643,9.643,0,0,1,12-3.7Z" fill="#fff" opacity="0.4"/>
          <path id="XMLID_1011_" d="M385.4,198h0c-.1-.7-.5-.9-1-.6a2.169,2.169,0,0,0-.6.7l-.3.4-54.8,83.4-8.2,11.4A4.749,4.749,0,0,1,316,295l-7.1-1.7-54-19.9a2.045,2.045,0,0,0-1.1,0c-.1,0-.3.1-.4.1l2-1.2,51.7,19,6.8,2.4a4.542,4.542,0,0,0,4.5-1.7l8.2-11.4,55.1-83.8a3.4,3.4,0,0,1,.6-.6l-4.8-2.8,2-1.2,3.3,1.9A6.806,6.806,0,0,1,385.4,198Z" fill="#77323b"/>
          <path id="XMLID_1010_" d="M328.6,281.9l-8.2,11.4a4.749,4.749,0,0,1-4.5,1.7l-7.1-1.7.1-.1.3-.5,4.6,1.1a4.542,4.542,0,0,0,4.5-1.7l8.1-11.3Z" fill="#fff" opacity="0.4"/>
          <path id="XMLID_1009_" d="M382.9,194.3l-3.3-1.9-2,1.1,4.8,2.8h0c-.2.2-.5.3-.6.6l-55.1,83.8-.1.1h0l2,1.1,54.9-83.4.3-.4a4.349,4.349,0,0,1,.6-.7c.5-.3.9-.1,1,.6h0A6.055,6.055,0,0,0,382.9,194.3Z" opacity="0.1"/>
          <path id="XMLID_1008_" d="M256,275.1l-11.8-6.8V369.6a5.417,5.417,0,0,0,2.5,4.3l2.8,1.6a5.508,5.508,0,0,0,5,0l1.4-.8V275.1Z" fill="#77323b"/>
          <path id="XMLID_1007_" d="M256,275.1l-11.8-6.8V369.6a5.417,5.417,0,0,0,2.5,4.3l2.8,1.6a5.508,5.508,0,0,0,5,0l1.4-.8V275.1Z" fill="#77323b" opacity="0.15"/>
          <path id="XMLID_1005_" d="M385.4,198.7v98.4a4.9,4.9,0,0,1-.8,2.5,4.978,4.978,0,0,1-1.5,1.7H383c-.1,0-.1.1-.2.1L254.4,375.5h0a1.807,1.807,0,0,1-1.7.2,1.549,1.549,0,0,1-.8-1.2V275.6a2.16,2.16,0,0,1,2.8-2.2l54,19.9,7.1,1.7a4.542,4.542,0,0,0,4.5-1.7l8.2-11.4,54.8-83.4.3-.4C384.7,196.8,385.4,197.1,385.4,198.7Z" fill="#77323b"/>
          <path id="XMLID_1004_" d="M382.9,301.4c.1,0,.1-.1.2-.1l.1-.1a5.724,5.724,0,0,0,1.5-1.6,4.9,4.9,0,0,0,.8-2.5l-56.8-15.2,38,28.9Z" fill="#77323b"/>
          <path id="XMLID_1000_" d="M382.9,301.4c.1,0,.1-.1.2-.1l.1-.1a5.724,5.724,0,0,0,1.5-1.6,4.9,4.9,0,0,0,.8-2.5l-56.8-15.2,38,28.9Z" opacity="0.2"/>
          <path id="XMLID_999_" d="M252.1,374.1a1.879,1.879,0,0,0,.8,1.7,1.806,1.806,0,0,0,1.7-.2h0l44.2-25.5,10.1-56.7-56.8,79.1Z" fill="#77323b"/>
          <path id="XMLID_998_" d="M314.3,284.6l-61.5,91.1a1.7,1.7,0,0,1-.8-1.6v-1.6l60-89h0Z" opacity="0.15"/>
          <path id="XMLID_992_" d="M384.7,299.6a4.629,4.629,0,0,1-1.5,1.6l-.1.1L254.6,375.5h0a1.807,1.807,0,0,1-1.7.2l61.5-91.1a9.66,9.66,0,0,1,12.1-3.7Z" fill="#77323b"/>
          <path id="XMLID_966_" d="M244.7,259.2l2,1.2a9.723,9.723,0,0,0-.5,2.7v6.4l-2-1.2v-6.4A9.117,9.117,0,0,1,244.7,259.2Z" opacity="0.15"/>
          <path id="XMLID_946_" d="M255.4,272.4l-2,1.1-2.1-1.1-5.1-3,2-1.1Z" fill="#27debf"/>
          <path id="XMLID_945_" d="M255.5,272.4l-7.3-4.1-2,1.2,5.1,2.9,2.1,1.2h0a.6.6,0,0,1,.4-.1,4.033,4.033,0,0,1,1.1,0L259,275l47.1,17.3.7-1.1Z" opacity="0.1"/>
        </g>
      </g>
    </g>
    <g id="Clouds">
      <g id="Clouds_5_">
        <g id="Cloud_5_">
          <path id="XMLID_1112_" d="M145,102.1l-7.6,4.4c0-.3.1-.7.1-1v-2.2c0-3.9-2.8-5.5-6.2-3.6a13.577,13.577,0,0,0-3.7,3.5c-.6-4.9-4.4-6.8-9.1-4.1-5.1,2.9-9.2,10.1-9.2,16v3.3a8.552,8.552,0,0,0,.8,3.8l-6.3,3.7a7.452,7.452,0,0,0-3.4,5.9c0,2.2,1.5,3.1,3.4,2L145,110a7.452,7.452,0,0,0,3.4-5.9C148.4,101.9,146.9,101,145,102.1Z" fill="#f0f0f0"/>
        </g>
        <g id="Cloud_4_">
          <path id="XMLID_1110_" d="M108.1,77l-9.4,5.4c0-.4.1-.8.1-1.2V78.5c0-4.8-3.4-6.8-7.6-4.4a14.144,14.144,0,0,0-4.5,4.3c-.7-6.1-5.5-8.3-11.2-5C69.2,77,64.1,85.8,64.1,93v4.1a9.361,9.361,0,0,0,1,4.7l-7.8,4.5a9.288,9.288,0,0,0-4.2,7.3c0,2.7,1.9,3.8,4.2,2.4l50.8-29.3a9.288,9.288,0,0,0,4.2-7.3C112.3,76.7,110.5,75.6,108.1,77Z" fill="#f0f0f0"/>
        </g>
      </g>
    </g>
    <g id="Paper_Plane_1_">
      <g id="Paper_Plane">
        <path id="XMLID_1116_" d="M405,164.7l35.3-22.6,15.6,5Z" fill="#028289"/>
        <path id="XMLID_1115_" d="M405,164.7l30.5-25.5-6.8-7.8Z" fill="#028289"/>
        <path id="XMLID_1114_" d="M435.5,139.2v5.9L405,164.7Z" fill="#27debf"/>
        <path id="XMLID_1113_" d="M435.5,139.2v5.9L405,164.7Z" opacity="0.25"/>
        <g id="XMLID_1111_">
          <path id="Path_47" data-name="Path 47" d="M440.6,138.7a1.421,1.421,0,0,1-.6-.2.785.785,0,0,1,0-1.1,22.058,22.058,0,0,0,2.9-3.2.781.781,0,1,1,1.2,1,19.281,19.281,0,0,1-3.1,3.3C441,138.7,440.8,138.7,440.6,138.7Zm5.7-7.4a.367.367,0,0,1-.3-.1.693.693,0,0,1-.3-1,25.78,25.78,0,0,0,2-5.5.765.765,0,0,1,1.5.3,28.636,28.636,0,0,1-2.1,5.8A1.458,1.458,0,0,1,446.3,131.3Zm2.7-10.6h0a.86.86,0,0,1-.8-.8v-1.2a23.835,23.835,0,0,0-.4-4.6.765.765,0,0,1,1.5-.3,26.286,26.286,0,0,1,.4,4.9V120A.684.684,0,0,1,449,120.7Zm-1.6-10.8a.752.752,0,0,1-.7-.5,27.891,27.891,0,0,0-2.4-5.3.738.738,0,1,1,1.3-.7,30.951,30.951,0,0,1,2.5,5.6.876.876,0,0,1-.5,1C447.5,109.9,447.5,109.9,447.4,109.9Zm-5.3-9.6a.864.864,0,0,1-.6-.3,53.39,53.39,0,0,0-3.9-4.4.778.778,0,1,1,1.1-1.1,42.774,42.774,0,0,1,4.1,4.5.792.792,0,0,1-.1,1.1C442.4,100.2,442.3,100.3,442.1,100.3Zm-7.8-7.7a.551.551,0,0,1-.5-.2,41.958,41.958,0,0,0-4.9-3.3.738.738,0,0,1,.7-1.3,45.2,45.2,0,0,1,5.1,3.4.772.772,0,0,1,.1,1.1A.55.55,0,0,1,434.3,92.6Zm-78.6-2.9a.755.755,0,0,1-.7-.4.693.693,0,0,1,.3-1c1.7-1,3.5-1.9,5.4-2.8a.762.762,0,0,1,.6,1.4,53.616,53.616,0,0,0-5.3,2.8ZM424.9,87a.367.367,0,0,1-.3-.1q-2.7-1.35-5.4-2.4a.762.762,0,0,1,.6-1.4c1.9.7,3.7,1.5,5.6,2.4a.693.693,0,0,1,.3,1A1.458,1.458,0,0,1,424.9,87Zm-59.3-2.1a.752.752,0,0,1-.7-.5.731.731,0,0,1,.4-1c1.9-.7,3.8-1.4,5.7-2a.728.728,0,0,1,.4,1.4c-1.9.6-3.8,1.2-5.6,1.9C365.8,84.9,365.7,84.9,365.6,84.9Zm49-2h-.2q-2.85-.9-5.7-1.5a.765.765,0,1,1,.3-1.5c2,.4,3.9.9,5.9,1.5a.715.715,0,0,1,.5.9A.76.76,0,0,1,414.6,82.9Zm-38.5-1.2a.661.661,0,0,1-.7-.6.779.779,0,0,1,.6-.9c2-.5,4-.8,6-1.1a.765.765,0,1,1,.3,1.5c-2,.3-3.9.7-5.8,1.1Zm27.8-1.2h-.1a56.1,56.1,0,0,0-5.9-.6.752.752,0,1,1,.1-1.5q3,.15,6,.6a.73.73,0,0,1,.6.9C404.6,80.3,404.3,80.5,403.9,80.5ZM387,80a.684.684,0,0,1-.7-.7.773.773,0,0,1,.7-.8c2-.2,4-.2,6.1-.3h0a.849.849,0,0,1,.8.7.773.773,0,0,1-.7.8c-2.2.1-4.2.1-6.2.3Z" fill="#e0e0e0"/>
        </g>
      </g>
    </g>
  </g>
</svg>
