<svg id="Group_8" data-name="Group 8" xmlns="http://www.w3.org/2000/svg" width="206.449" height="21.359" viewBox="0 0 206.449 21.359">
  <path id="star" d="M30.46.73,27.737,6.253l-6.094.888A1.335,1.335,0,0,0,20.9,9.419l4.409,4.3L24.27,19.785a1.334,1.334,0,0,0,1.935,1.406l5.452-2.866,5.452,2.866a1.335,1.335,0,0,0,1.935-1.406L38,13.715l4.409-4.3a1.335,1.335,0,0,0-.738-2.278l-6.094-.888L32.855.73a1.336,1.336,0,0,0-2.394,0Z" transform="translate(-20.5 0.013)" fill="#fda82b"/>
  <path id="star-2" data-name="star" d="M30.46.73,27.737,6.253l-6.094.888A1.335,1.335,0,0,0,20.9,9.419l4.409,4.3L24.27,19.785a1.334,1.334,0,0,0,1.935,1.406l5.452-2.866,5.452,2.866a1.335,1.335,0,0,0,1.935-1.406L38,13.715l4.409-4.3a1.335,1.335,0,0,0-.738-2.278l-6.094-.888L32.855.73a1.336,1.336,0,0,0-2.394,0Z" transform="translate(25.534 0.013)" fill="#fda82b"/>
  <path id="star-3" data-name="star" d="M30.46.73,27.737,6.253l-6.094.888A1.335,1.335,0,0,0,20.9,9.419l4.409,4.3L24.27,19.785a1.334,1.334,0,0,0,1.935,1.406l5.452-2.866,5.452,2.866a1.335,1.335,0,0,0,1.935-1.406L38,13.715l4.409-4.3a1.335,1.335,0,0,0-.738-2.278l-6.094-.888L32.855.73a1.336,1.336,0,0,0-2.394,0Z" transform="translate(71.567 0.013)" fill="#fda82b"/>
  <path id="star-4" data-name="star" d="M30.46.73,27.737,6.253l-6.094.888A1.335,1.335,0,0,0,20.9,9.419l4.409,4.3L24.27,19.785a1.334,1.334,0,0,0,1.935,1.406l5.452-2.866,5.452,2.866a1.335,1.335,0,0,0,1.935-1.406L38,13.715l4.409-4.3a1.335,1.335,0,0,0-.738-2.278l-6.094-.888L32.855.73a1.336,1.336,0,0,0-2.394,0Z" transform="translate(117.6 0.013)" fill="#fda82b"/>
  <path id="star-5" data-name="star" d="M30.46.73,27.737,6.253l-6.094.888A1.335,1.335,0,0,0,20.9,9.419l4.409,4.3L24.27,19.785a1.334,1.334,0,0,0,1.935,1.406l5.452-2.866,5.452,2.866a1.335,1.335,0,0,0,1.935-1.406L38,13.715l4.409-4.3a1.335,1.335,0,0,0-.738-2.278l-6.094-.888L32.855.73a1.336,1.336,0,0,0-2.394,0Z" transform="translate(163.633 0.013)" fill="#707070"/>
</svg>
